<?xml version="1.0" encoding="UTF-8" standalone="no"?>
<!DOCTYPE svg PUBLIC "-//W3C//DTD SVG 1.1//EN"
 "http://www.w3.org/Graphics/SVG/1.1/DTD/svg11.dtd">
<!-- Generated by graphviz version 5.0.0 (20220707.1540)
 -->
<!-- Title: dependencies Pages: 1 -->
<svg width="306pt" height="247pt"
 viewBox="0.00 0.00 306.00 246.80" xmlns="http://www.w3.org/2000/svg" xmlns:xlink="http://www.w3.org/1999/xlink">
<g id="graph0" class="graph" transform="scale(1 1) rotate(0) translate(4 242.8)">
<title>dependencies</title>
<polygon fill="white" stroke="transparent" points="-4,4 -4,-242.8 302,-242.8 302,4 -4,4"/>
<text text-anchor="middle" x="149" y="-8.2" font-family="sans-serif" font-size="14.00">dependencies</text>
<g id="clust1" class="cluster">
<title>cluster_CartModule</title>
<polygon fill="none" stroke="black" stroke-dasharray="1,5" points="8,-32.8 8,-230.8 290,-230.8 290,-32.8 8,-32.8"/>
</g>
<g id="clust4" class="cluster">
<title>cluster_CartModule_imports</title>
<polygon fill="none" stroke="black" points="168,-40.8 168,-92.8 282,-92.8 282,-40.8 168,-40.8"/>
</g>
<g id="clust2" class="cluster">
<title>cluster_CartModule_declarations</title>
<polygon fill="none" stroke="black" points="16,-40.8 16,-92.8 160,-92.8 160,-40.8 16,-40.8"/>
</g>
<g id="clust5" class="cluster">
<title>cluster_CartModule_exports</title>
<polygon fill="none" stroke="black" points="76,-170.8 76,-222.8 222,-222.8 222,-170.8 76,-170.8"/>
</g>
<!-- CartListComponent -->
<g id="node1" class="node">
<title>CartListComponent</title>
<polygon fill="#ffffb3" stroke="black" points="151.71,-84.8 24.29,-84.8 24.29,-48.8 151.71,-48.8 151.71,-84.8"/>
<text text-anchor="middle" x="88" y="-62.6" font-family="Times,serif" font-size="14.00">CartListComponent</text>
</g>
<!-- CartModule -->
<g id="node2" class="node">
<title>CartModule</title>
<polygon fill="#8dd3c7" stroke="black" points="190.66,-149.8 187.66,-153.8 166.66,-153.8 163.66,-149.8 107.34,-149.8 107.34,-113.8 190.66,-113.8 190.66,-149.8"/>
<text text-anchor="middle" x="149" y="-127.6" font-family="Times,serif" font-size="14.00">CartModule</text>
</g>
<!-- CartListComponent&#45;&gt;CartModule -->
<g id="edge1" class="edge">
<title>CartListComponent&#45;&gt;CartModule</title>
<path fill="none" stroke="black" d="M129.39,-84.91C129.39,-84.91 129.39,-103.79 129.39,-103.79"/>
<polygon fill="black" stroke="black" points="125.89,-103.79 129.39,-113.79 132.89,-103.79 125.89,-103.79"/>
</g>
<!-- CartListComponent  -->
<g id="node4" class="node">
<title>CartListComponent </title>
<polygon fill="#fb8072" stroke="black" points="214.21,-214.8 83.79,-214.8 83.79,-178.8 214.21,-178.8 214.21,-214.8"/>
<text text-anchor="middle" x="149" y="-192.6" font-family="Times,serif" font-size="14.00">CartListComponent </text>
</g>
<!-- CartModule&#45;&gt;CartListComponent  -->
<g id="edge3" class="edge">
<title>CartModule&#45;&gt;CartListComponent </title>
<path fill="none" stroke="black" stroke-dasharray="5,2" d="M149,-149.91C149,-149.91 149,-168.79 149,-168.79"/>
<polygon fill="black" stroke="black" points="145.5,-168.79 149,-178.79 152.5,-168.79 145.5,-168.79"/>
</g>
<!-- SharedModule -->
<g id="node3" class="node">
<title>SharedModule</title>
<polygon fill="#8dd3c7" stroke="black" points="274.43,-84.8 271.43,-88.8 250.43,-88.8 247.43,-84.8 175.57,-84.8 175.57,-48.8 274.43,-48.8 274.43,-84.8"/>
<text text-anchor="middle" x="225" y="-62.6" font-family="Times,serif" font-size="14.00">SharedModule</text>
</g>
<!-- SharedModule&#45;&gt;CartModule -->
<g id="edge2" class="edge">
<title>SharedModule&#45;&gt;CartModule</title>
<path fill="none" stroke="black" d="M183.31,-84.91C183.31,-84.91 183.31,-103.79 183.31,-103.79"/>
<polygon fill="black" stroke="black" points="179.81,-103.79 183.31,-113.79 186.81,-103.79 179.81,-103.79"/>
</g>
</g>
</svg>
