<?xml version="1.0" encoding="UTF-8" standalone="no"?>
<!DOCTYPE svg PUBLIC "-//W3C//DTD SVG 1.1//EN"
 "http://www.w3.org/Graphics/SVG/1.1/DTD/svg11.dtd">
<!-- Generated by graphviz version 5.0.0 (20220707.1540)
 -->
<!-- Title: dependencies Pages: 1 -->
<svg width="572pt" height="247pt"
 viewBox="0.00 0.00 572.00 246.80" xmlns="http://www.w3.org/2000/svg" xmlns:xlink="http://www.w3.org/1999/xlink">
<g id="graph0" class="graph" transform="scale(1 1) rotate(0) translate(4 242.8)">
<title>dependencies</title>
<polygon fill="white" stroke="transparent" points="-4,4 -4,-242.8 568,-242.8 568,4 -4,4"/>
<text text-anchor="middle" x="282" y="-8.2" font-family="sans-serif" font-size="14.00">dependencies</text>
<g id="clust1" class="cluster">
<title>cluster_SharedModule</title>
<polygon fill="none" stroke="black" stroke-dasharray="1,5" points="8,-32.8 8,-230.8 556,-230.8 556,-32.8 8,-32.8"/>
</g>
<g id="clust2" class="cluster">
<title>cluster_SharedModule_declarations</title>
<polygon fill="none" stroke="black" points="21,-40.8 21,-92.8 543,-92.8 543,-40.8 21,-40.8"/>
</g>
<g id="clust7" class="cluster">
<title>cluster_SharedModule_exports</title>
<polygon fill="none" stroke="black" points="16,-170.8 16,-222.8 548,-222.8 548,-170.8 16,-170.8"/>
</g>
<!-- AddInCartModalComponent -->
<g id="node1" class="node">
<title>AddInCartModalComponent</title>
<polygon fill="#ffffb3" stroke="black" points="534.76,-84.8 357.24,-84.8 357.24,-48.8 534.76,-48.8 534.76,-84.8"/>
<text text-anchor="middle" x="446" y="-62.6" font-family="Times,serif" font-size="14.00">AddInCartModalComponent</text>
</g>
<!-- SharedModule -->
<g id="node4" class="node">
<title>SharedModule</title>
<polygon fill="#8dd3c7" stroke="black" points="314.43,-149.8 311.43,-153.8 290.43,-153.8 287.43,-149.8 215.57,-149.8 215.57,-113.8 314.43,-113.8 314.43,-149.8"/>
<text text-anchor="middle" x="265" y="-127.6" font-family="Times,serif" font-size="14.00">SharedModule</text>
</g>
<!-- AddInCartModalComponent&#45;&gt;SharedModule -->
<g id="edge1" class="edge">
<title>AddInCartModalComponent&#45;&gt;SharedModule</title>
<path fill="none" stroke="black" d="M476.04,-84.82C476.04,-102.17 476.04,-125.8 476.04,-125.8 476.04,-125.8 324.21,-125.8 324.21,-125.8"/>
<polygon fill="black" stroke="black" points="324.21,-122.3 314.21,-125.8 324.21,-129.3 324.21,-122.3"/>
</g>
<!-- ErrorModalComponent -->
<g id="node2" class="node">
<title>ErrorModalComponent</title>
<polygon fill="#ffffb3" stroke="black" points="338.92,-84.8 191.08,-84.8 191.08,-48.8 338.92,-48.8 338.92,-84.8"/>
<text text-anchor="middle" x="265" y="-62.6" font-family="Times,serif" font-size="14.00">ErrorModalComponent</text>
</g>
<!-- ErrorModalComponent&#45;&gt;SharedModule -->
<g id="edge2" class="edge">
<title>ErrorModalComponent&#45;&gt;SharedModule</title>
<path fill="none" stroke="black" d="M265,-84.91C265,-84.91 265,-103.79 265,-103.79"/>
<polygon fill="black" stroke="black" points="261.5,-103.79 265,-113.79 268.5,-103.79 261.5,-103.79"/>
</g>
<!-- FileUploadComponent -->
<g id="node3" class="node">
<title>FileUploadComponent</title>
<polygon fill="#ffffb3" stroke="black" points="173.32,-84.8 28.68,-84.8 28.68,-48.8 173.32,-48.8 173.32,-84.8"/>
<text text-anchor="middle" x="101" y="-62.6" font-family="Times,serif" font-size="14.00">FileUploadComponent</text>
</g>
<!-- FileUploadComponent&#45;&gt;SharedModule -->
<g id="edge3" class="edge">
<title>FileUploadComponent&#45;&gt;SharedModule</title>
<path fill="none" stroke="black" d="M124.22,-84.82C124.22,-102.17 124.22,-125.8 124.22,-125.8 124.22,-125.8 205.76,-125.8 205.76,-125.8"/>
<polygon fill="black" stroke="black" points="205.76,-129.3 215.76,-125.8 205.76,-122.3 205.76,-129.3"/>
</g>
<!-- AddInCartModalComponent  -->
<g id="node5" class="node">
<title>AddInCartModalComponent </title>
<polygon fill="#fb8072" stroke="black" points="539.76,-214.8 358.24,-214.8 358.24,-178.8 539.76,-178.8 539.76,-214.8"/>
<text text-anchor="middle" x="449" y="-192.6" font-family="Times,serif" font-size="14.00">AddInCartModalComponent </text>
</g>
<!-- SharedModule&#45;&gt;AddInCartModalComponent  -->
<g id="edge4" class="edge">
<title>SharedModule&#45;&gt;AddInCartModalComponent </title>
<path fill="none" stroke="black" stroke-dasharray="5,2" d="M314.42,-137.8C358.86,-137.8 417.21,-137.8 417.21,-137.8 417.21,-137.8 417.21,-168.78 417.21,-168.78"/>
<polygon fill="black" stroke="black" points="413.71,-168.78 417.21,-178.78 420.71,-168.78 413.71,-168.78"/>
</g>
<!-- ErrorModalComponent  -->
<g id="node6" class="node">
<title>ErrorModalComponent </title>
<polygon fill="#fb8072" stroke="black" points="340.42,-214.8 189.58,-214.8 189.58,-178.8 340.42,-178.8 340.42,-214.8"/>
<text text-anchor="middle" x="265" y="-192.6" font-family="Times,serif" font-size="14.00">ErrorModalComponent </text>
</g>
<!-- SharedModule&#45;&gt;ErrorModalComponent  -->
<g id="edge5" class="edge">
<title>SharedModule&#45;&gt;ErrorModalComponent </title>
<path fill="none" stroke="black" stroke-dasharray="5,2" d="M265,-149.91C265,-149.91 265,-168.79 265,-168.79"/>
<polygon fill="black" stroke="black" points="261.5,-168.79 265,-178.79 268.5,-168.79 261.5,-168.79"/>
</g>
<!-- FileUploadComponent  -->
<g id="node7" class="node">
<title>FileUploadComponent </title>
<polygon fill="#fb8072" stroke="black" points="171.82,-214.8 24.18,-214.8 24.18,-178.8 171.82,-178.8 171.82,-214.8"/>
<text text-anchor="middle" x="98" y="-192.6" font-family="Times,serif" font-size="14.00">FileUploadComponent </text>
</g>
<!-- SharedModule&#45;&gt;FileUploadComponent  -->
<g id="edge6" class="edge">
<title>SharedModule&#45;&gt;FileUploadComponent </title>
<path fill="none" stroke="black" stroke-dasharray="5,2" d="M215.48,-137.8C159.64,-137.8 76.53,-137.8 76.53,-137.8 76.53,-137.8 76.53,-168.78 76.53,-168.78"/>
<polygon fill="black" stroke="black" points="73.03,-168.78 76.53,-178.78 80.03,-168.78 73.03,-168.78"/>
</g>
</g>
</svg>
