<?xml version="1.0" encoding="UTF-8" standalone="no"?>
<!DOCTYPE svg PUBLIC "-//W3C//DTD SVG 1.1//EN"
 "http://www.w3.org/Graphics/SVG/1.1/DTD/svg11.dtd">
<!-- Generated by graphviz version 5.0.0 (20220707.1540)
 -->
<!-- Title: dependencies Pages: 1 -->
<svg width="500pt" height="174pt"
 viewBox="0.00 0.00 500.00 173.80" xmlns="http://www.w3.org/2000/svg" xmlns:xlink="http://www.w3.org/1999/xlink">
<g id="graph0" class="graph" transform="scale(1 1) rotate(0) translate(4 169.8)">
<title>dependencies</title>
<polygon fill="white" stroke="transparent" points="-4,4 -4,-169.8 496,-169.8 496,4 -4,4"/>
<text text-anchor="middle" x="246" y="-8.2" font-family="sans-serif" font-size="14.00">dependencies</text>
<g id="clust1" class="cluster">
<title>cluster_AuthModule</title>
<polygon fill="none" stroke="black" stroke-dasharray="1,5" points="8,-32.8 8,-157.8 484,-157.8 484,-32.8 8,-32.8"/>
</g>
<g id="clust5" class="cluster">
<title>cluster_AuthModule_imports</title>
<polygon fill="none" stroke="black" points="362,-40.8 362,-92.8 476,-92.8 476,-40.8 362,-40.8"/>
</g>
<g id="clust2" class="cluster">
<title>cluster_AuthModule_declarations</title>
<polygon fill="none" stroke="black" points="16,-40.8 16,-92.8 354,-92.8 354,-40.8 16,-40.8"/>
</g>
<!-- LoginFormComponent -->
<g id="node1" class="node">
<title>LoginFormComponent</title>
<polygon fill="#ffffb3" stroke="black" points="345.61,-84.8 200.39,-84.8 200.39,-48.8 345.61,-48.8 345.61,-84.8"/>
<text text-anchor="middle" x="273" y="-62.6" font-family="Times,serif" font-size="14.00">LoginFormComponent</text>
</g>
<!-- AuthModule -->
<g id="node3" class="node">
<title>AuthModule</title>
<polygon fill="#8dd3c7" stroke="black" points="316.55,-149.8 313.55,-153.8 292.55,-153.8 289.55,-149.8 229.45,-149.8 229.45,-113.8 316.55,-113.8 316.55,-149.8"/>
<text text-anchor="middle" x="273" y="-127.6" font-family="Times,serif" font-size="14.00">AuthModule</text>
</g>
<!-- LoginFormComponent&#45;&gt;AuthModule -->
<g id="edge1" class="edge">
<title>LoginFormComponent&#45;&gt;AuthModule</title>
<path fill="none" stroke="black" d="M273,-84.91C273,-84.91 273,-103.79 273,-103.79"/>
<polygon fill="black" stroke="black" points="269.5,-103.79 273,-113.79 276.5,-103.79 269.5,-103.79"/>
</g>
<!-- RegisterFormComponent -->
<g id="node2" class="node">
<title>RegisterFormComponent</title>
<polygon fill="#ffffb3" stroke="black" points="182.32,-84.8 23.68,-84.8 23.68,-48.8 182.32,-48.8 182.32,-84.8"/>
<text text-anchor="middle" x="103" y="-62.6" font-family="Times,serif" font-size="14.00">RegisterFormComponent</text>
</g>
<!-- RegisterFormComponent&#45;&gt;AuthModule -->
<g id="edge2" class="edge">
<title>RegisterFormComponent&#45;&gt;AuthModule</title>
<path fill="none" stroke="black" d="M103,-84.91C103,-104.14 103,-131.8 103,-131.8 103,-131.8 219.22,-131.8 219.22,-131.8"/>
<polygon fill="black" stroke="black" points="219.22,-135.3 229.22,-131.8 219.22,-128.3 219.22,-135.3"/>
</g>
<!-- SharedModule -->
<g id="node4" class="node">
<title>SharedModule</title>
<polygon fill="#8dd3c7" stroke="black" points="468.43,-84.8 465.43,-88.8 444.43,-88.8 441.43,-84.8 369.57,-84.8 369.57,-48.8 468.43,-48.8 468.43,-84.8"/>
<text text-anchor="middle" x="419" y="-62.6" font-family="Times,serif" font-size="14.00">SharedModule</text>
</g>
<!-- SharedModule&#45;&gt;AuthModule -->
<g id="edge3" class="edge">
<title>SharedModule&#45;&gt;AuthModule</title>
<path fill="none" stroke="black" d="M419,-84.91C419,-104.14 419,-131.8 419,-131.8 419,-131.8 326.8,-131.8 326.8,-131.8"/>
<polygon fill="black" stroke="black" points="326.8,-128.3 316.8,-131.8 326.8,-135.3 326.8,-128.3"/>
</g>
</g>
</svg>
