<?xml version="1.0" encoding="UTF-8" standalone="no"?>
<!DOCTYPE svg PUBLIC "-//W3C//DTD SVG 1.1//EN"
 "http://www.w3.org/Graphics/SVG/1.1/DTD/svg11.dtd">
<!-- Generated by graphviz version 5.0.0 (20220707.1540)
 -->
<!-- Title: dependencies Pages: 1 -->
<svg width="705pt" height="174pt"
 viewBox="0.00 0.00 705.00 173.80" xmlns="http://www.w3.org/2000/svg" xmlns:xlink="http://www.w3.org/1999/xlink">
<g id="graph0" class="graph" transform="scale(1 1) rotate(0) translate(4 169.8)">
<title>dependencies</title>
<polygon fill="white" stroke="transparent" points="-4,4 -4,-169.8 701,-169.8 701,4 -4,4"/>
<text text-anchor="middle" x="348.5" y="-8.2" font-family="sans-serif" font-size="14.00">dependencies</text>
<g id="clust1" class="cluster">
<title>cluster_ShoppingListsModule</title>
<polygon fill="none" stroke="black" stroke-dasharray="1,5" points="8,-32.8 8,-157.8 689,-157.8 689,-32.8 8,-32.8"/>
</g>
<g id="clust5" class="cluster">
<title>cluster_ShoppingListsModule_imports</title>
<polygon fill="none" stroke="black" points="363,-40.8 363,-92.8 681,-92.8 681,-40.8 363,-40.8"/>
</g>
<g id="clust2" class="cluster">
<title>cluster_ShoppingListsModule_declarations</title>
<polygon fill="none" stroke="black" points="16,-40.8 16,-92.8 355,-92.8 355,-40.8 16,-40.8"/>
</g>
<!-- ListDetailsComponent -->
<g id="node1" class="node">
<title>ListDetailsComponent</title>
<polygon fill="#ffffb3" stroke="black" points="347.27,-84.8 204.73,-84.8 204.73,-48.8 347.27,-48.8 347.27,-84.8"/>
<text text-anchor="middle" x="276" y="-62.6" font-family="Times,serif" font-size="14.00">ListDetailsComponent</text>
</g>
<!-- ShoppingListsModule -->
<g id="node3" class="node">
<title>ShoppingListsModule</title>
<polygon fill="#8dd3c7" stroke="black" points="440.46,-149.8 437.46,-153.8 416.46,-153.8 413.46,-149.8 299.54,-149.8 299.54,-113.8 440.46,-113.8 440.46,-149.8"/>
<text text-anchor="middle" x="370" y="-127.6" font-family="Times,serif" font-size="14.00">ShoppingListsModule</text>
</g>
<!-- ListDetailsComponent&#45;&gt;ShoppingListsModule -->
<g id="edge1" class="edge">
<title>ListDetailsComponent&#45;&gt;ShoppingListsModule</title>
<path fill="none" stroke="black" d="M323.58,-84.91C323.58,-84.91 323.58,-103.79 323.58,-103.79"/>
<polygon fill="black" stroke="black" points="320.08,-103.79 323.58,-113.79 327.08,-103.79 320.08,-103.79"/>
</g>
<!-- ShoppingListsComponent -->
<g id="node2" class="node">
<title>ShoppingListsComponent</title>
<polygon fill="#ffffb3" stroke="black" points="186.23,-84.8 23.77,-84.8 23.77,-48.8 186.23,-48.8 186.23,-84.8"/>
<text text-anchor="middle" x="105" y="-62.6" font-family="Times,serif" font-size="14.00">ShoppingListsComponent</text>
</g>
<!-- ShoppingListsComponent&#45;&gt;ShoppingListsModule -->
<g id="edge2" class="edge">
<title>ShoppingListsComponent&#45;&gt;ShoppingListsModule</title>
<path fill="none" stroke="black" d="M105,-84.91C105,-104.14 105,-131.8 105,-131.8 105,-131.8 289.68,-131.8 289.68,-131.8"/>
<polygon fill="black" stroke="black" points="289.68,-135.3 299.68,-131.8 289.68,-128.3 289.68,-135.3"/>
</g>
<!-- SharedModule -->
<g id="node4" class="node">
<title>SharedModule</title>
<polygon fill="#8dd3c7" stroke="black" points="673.43,-84.8 670.43,-88.8 649.43,-88.8 646.43,-84.8 574.57,-84.8 574.57,-48.8 673.43,-48.8 673.43,-84.8"/>
<text text-anchor="middle" x="624" y="-62.6" font-family="Times,serif" font-size="14.00">SharedModule</text>
</g>
<!-- SharedModule&#45;&gt;ShoppingListsModule -->
<g id="edge3" class="edge">
<title>SharedModule&#45;&gt;ShoppingListsModule</title>
<path fill="none" stroke="black" d="M624,-84.91C624,-104.14 624,-131.8 624,-131.8 624,-131.8 450.42,-131.8 450.42,-131.8"/>
<polygon fill="black" stroke="black" points="450.42,-128.3 440.42,-131.8 450.42,-135.3 450.42,-128.3"/>
</g>
<!-- ShoppingListsRoutingModule -->
<g id="node5" class="node">
<title>ShoppingListsRoutingModule</title>
<polygon fill="#8dd3c7" stroke="black" points="556.57,-84.8 553.57,-88.8 532.57,-88.8 529.57,-84.8 371.43,-84.8 371.43,-48.8 556.57,-48.8 556.57,-84.8"/>
<text text-anchor="middle" x="464" y="-62.6" font-family="Times,serif" font-size="14.00">ShoppingListsRoutingModule</text>
</g>
<!-- ShoppingListsRoutingModule&#45;&gt;ShoppingListsModule -->
<g id="edge4" class="edge">
<title>ShoppingListsRoutingModule&#45;&gt;ShoppingListsModule</title>
<path fill="none" stroke="black" d="M405.72,-84.91C405.72,-84.91 405.72,-103.79 405.72,-103.79"/>
<polygon fill="black" stroke="black" points="402.22,-103.79 405.72,-113.79 409.22,-103.79 402.22,-103.79"/>
</g>
</g>
</svg>
