<?xml version="1.0" encoding="UTF-8" standalone="no"?>
<!DOCTYPE svg PUBLIC "-//W3C//DTD SVG 1.1//EN"
 "http://www.w3.org/Graphics/SVG/1.1/DTD/svg11.dtd">
<!-- Generated by graphviz version 5.0.0 (20220707.1540)
 -->
<!-- Title: dependencies Pages: 1 -->
<svg width="6001pt" height="405pt"
 viewBox="0.00 0.00 6001.00 404.80" xmlns="http://www.w3.org/2000/svg" xmlns:xlink="http://www.w3.org/1999/xlink">
<g id="graph0" class="graph" transform="scale(1 1) rotate(0) translate(4 400.8)">
<title>dependencies</title>
<polygon fill="white" stroke="transparent" points="-4,4 -4,-400.8 5997,-400.8 5997,4 -4,4"/>
<text text-anchor="middle" x="2996.5" y="-8.2" font-family="sans-serif" font-size="14.00">dependencies</text>
<g id="clust1" class="cluster">
<title>cluster_AdminModule</title>
<polygon fill="none" stroke="black" stroke-dasharray="1,5" points="8,-108.8 8,-236.8 506,-236.8 506,-108.8 8,-108.8"/>
</g>
<g id="clust2" class="cluster">
<title>cluster_AdminModule_declarations</title>
<polygon fill="none" stroke="black" points="16,-116.8 16,-168.8 214,-168.8 214,-116.8 16,-116.8"/>
</g>
<g id="clust4" class="cluster">
<title>cluster_AdminModule_imports</title>
<polygon fill="none" stroke="black" points="222,-116.8 222,-168.8 498,-168.8 498,-116.8 222,-116.8"/>
</g>
<g id="clust14" class="cluster">
<title>cluster_AppModule</title>
<polygon fill="none" stroke="black" stroke-dasharray="1,5" points="514,-176.8 514,-388.8 1039,-388.8 1039,-176.8 514,-176.8"/>
</g>
<g id="clust15" class="cluster">
<title>cluster_AppModule_declarations</title>
<polygon fill="none" stroke="black" points="522,-184.8 522,-236.8 777,-236.8 777,-184.8 522,-184.8"/>
</g>
<g id="clust18" class="cluster">
<title>cluster_AppModule_imports</title>
<polygon fill="none" stroke="black" points="785,-184.8 785,-236.8 1031,-236.8 1031,-184.8 785,-184.8"/>
</g>
<g id="clust20" class="cluster">
<title>cluster_AppModule_bootstrap</title>
<polygon fill="none" stroke="black" points="654,-328.8 654,-380.8 778,-380.8 778,-328.8 654,-328.8"/>
</g>
<g id="clust28" class="cluster">
<title>cluster_AuthModule</title>
<polygon fill="none" stroke="black" stroke-dasharray="1,5" points="3402,-108.8 3402,-236.8 3756,-236.8 3756,-108.8 3402,-108.8"/>
</g>
<g id="clust29" class="cluster">
<title>cluster_AuthModule_declarations</title>
<polygon fill="none" stroke="black" points="3410,-116.8 3410,-168.8 3748,-168.8 3748,-116.8 3410,-116.8"/>
</g>
<g id="clust36" class="cluster">
<title>cluster_CartModule</title>
<polygon fill="none" stroke="black" stroke-dasharray="1,5" points="1047,-252.8 1047,-320.8 1361,-320.8 1361,-252.8 1047,-252.8"/>
</g>
<g id="clust37" class="cluster">
<title>cluster_CartModule_declarations</title>
<polygon fill="none" stroke="black" points="1209,-260.8 1209,-312.8 1353,-312.8 1353,-260.8 1209,-260.8"/>
</g>
<g id="clust40" class="cluster">
<title>cluster_CartModule_exports</title>
<polygon fill="none" stroke="black" points="1055,-260.8 1055,-312.8 1201,-312.8 1201,-260.8 1055,-260.8"/>
</g>
<g id="clust49" class="cluster">
<title>cluster_ProductsModule</title>
<polygon fill="none" stroke="black" stroke-dasharray="1,5" points="1369,-176.8 1369,-312.8 2286,-312.8 2286,-176.8 1369,-176.8"/>
</g>
<g id="clust50" class="cluster">
<title>cluster_ProductsModule_declarations</title>
<polygon fill="none" stroke="black" points="1555,-184.8 1555,-236.8 2278,-236.8 2278,-184.8 1555,-184.8"/>
</g>
<g id="clust55" class="cluster">
<title>cluster_ProductsModule_imports</title>
<polygon fill="none" stroke="black" points="1377,-184.8 1377,-236.8 1547,-236.8 1547,-184.8 1377,-184.8"/>
</g>
<g id="clust65" class="cluster">
<title>cluster_RolesPermissionsModule</title>
<polygon fill="none" stroke="black" stroke-dasharray="1,5" points="3764,-108.8 3764,-236.8 4420,-236.8 4420,-108.8 3764,-108.8"/>
</g>
<g id="clust66" class="cluster">
<title>cluster_RolesPermissionsModule_declarations</title>
<polygon fill="none" stroke="black" points="4000,-116.8 4000,-168.8 4412,-168.8 4412,-116.8 4000,-116.8"/>
</g>
<g id="clust69" class="cluster">
<title>cluster_RolesPermissionsModule_imports</title>
<polygon fill="none" stroke="black" points="3772,-116.8 3772,-168.8 3992,-168.8 3992,-116.8 3772,-116.8"/>
</g>
<g id="clust79" class="cluster">
<title>cluster_SharedModule</title>
<polygon fill="none" stroke="black" stroke-dasharray="1,5" points="2316,-176.8 2316,-244.8 3394,-244.8 3394,-176.8 2316,-176.8"/>
</g>
<g id="clust80" class="cluster">
<title>cluster_SharedModule_declarations</title>
<polygon fill="none" stroke="black" points="2864,-184.8 2864,-236.8 3386,-236.8 3386,-184.8 2864,-184.8"/>
</g>
<g id="clust85" class="cluster">
<title>cluster_SharedModule_exports</title>
<polygon fill="none" stroke="black" points="2324,-184.8 2324,-236.8 2856,-236.8 2856,-184.8 2324,-184.8"/>
</g>
<g id="clust88" class="cluster">
<title>cluster_ShoppingListsModule</title>
<polygon fill="none" stroke="black" stroke-dasharray="1,5" points="4428,-108.8 4428,-236.8 4993,-236.8 4993,-108.8 4428,-108.8"/>
</g>
<g id="clust89" class="cluster">
<title>cluster_ShoppingListsModule_declarations</title>
<polygon fill="none" stroke="black" points="4646,-116.8 4646,-168.8 4985,-168.8 4985,-116.8 4646,-116.8"/>
</g>
<g id="clust92" class="cluster">
<title>cluster_ShoppingListsModule_imports</title>
<polygon fill="none" stroke="black" points="4436,-116.8 4436,-168.8 4638,-168.8 4638,-116.8 4436,-116.8"/>
</g>
<g id="clust102" class="cluster">
<title>cluster_StockModule</title>
<polygon fill="none" stroke="black" stroke-dasharray="1,5" points="5001,-108.8 5001,-236.8 5329,-236.8 5329,-108.8 5001,-108.8"/>
</g>
<g id="clust103" class="cluster">
<title>cluster_StockModule_declarations</title>
<polygon fill="none" stroke="black" points="5169,-116.8 5169,-168.8 5321,-168.8 5321,-116.8 5169,-116.8"/>
</g>
<g id="clust105" class="cluster">
<title>cluster_StockModule_imports</title>
<polygon fill="none" stroke="black" points="5009,-116.8 5009,-168.8 5161,-168.8 5161,-116.8 5009,-116.8"/>
</g>
<g id="clust115" class="cluster">
<title>cluster_UsersModule</title>
<polygon fill="none" stroke="black" stroke-dasharray="1,5" points="5337,-108.8 5337,-236.8 5985,-236.8 5985,-108.8 5337,-108.8"/>
</g>
<g id="clust116" class="cluster">
<title>cluster_UsersModule_declarations</title>
<polygon fill="none" stroke="black" points="5505,-116.8 5505,-168.8 5977,-168.8 5977,-116.8 5505,-116.8"/>
</g>
<g id="clust120" class="cluster">
<title>cluster_UsersModule_imports</title>
<polygon fill="none" stroke="black" points="5345,-116.8 5345,-168.8 5497,-168.8 5497,-116.8 5345,-116.8"/>
</g>
<g id="clust124" class="cluster">
<title>cluster_UsersRoutingModule</title>
<polygon fill="none" stroke="black" stroke-dasharray="1,5" points="5343,-32.8 5343,-100.8 5499,-100.8 5499,-32.8 5343,-32.8"/>
</g>
<g id="clust129" class="cluster">
<title>cluster_UsersRoutingModule_providers</title>
<polygon fill="none" stroke="black" points="5351,-40.8 5351,-92.8 5491,-92.8 5491,-40.8 5351,-40.8"/>
</g>
<!-- AdminNavigationComponent -->
<g id="node1" class="node">
<title>AdminNavigationComponent</title>
<polygon fill="#ffffb3" stroke="black" points="206.43,-160.8 23.57,-160.8 23.57,-124.8 206.43,-124.8 206.43,-160.8"/>
<text text-anchor="middle" x="115" y="-138.6" font-family="Times,serif" font-size="14.00">AdminNavigationComponent</text>
</g>
<!-- AdminModule -->
<g id="node2" class="node">
<title>AdminModule</title>
<polygon fill="#8dd3c7" stroke="black" points="351.44,-228.8 348.44,-232.8 327.44,-232.8 324.44,-228.8 252.56,-228.8 252.56,-192.8 351.44,-192.8 351.44,-228.8"/>
<text text-anchor="middle" x="302" y="-206.6" font-family="Times,serif" font-size="14.00">AdminModule</text>
</g>
<!-- AdminNavigationComponent&#45;&gt;AdminModule -->
<g id="edge1" class="edge">
<title>AdminNavigationComponent&#45;&gt;AdminModule</title>
<path fill="none" stroke="black" d="M115,-161.02C115,-181.17 115,-210.8 115,-210.8 115,-210.8 242.38,-210.8 242.38,-210.8"/>
<polygon fill="black" stroke="black" points="242.38,-214.3 252.38,-210.8 242.38,-207.3 242.38,-214.3"/>
</g>
<!-- AdminRoutingModule -->
<g id="node3" class="node">
<title>AdminRoutingModule</title>
<polygon fill="#8dd3c7" stroke="black" points="373.56,-160.8 370.56,-164.8 349.56,-164.8 346.56,-160.8 230.44,-160.8 230.44,-124.8 373.56,-124.8 373.56,-160.8"/>
<text text-anchor="middle" x="302" y="-138.6" font-family="Times,serif" font-size="14.00">AdminRoutingModule</text>
</g>
<!-- AdminRoutingModule&#45;&gt;AdminModule -->
<g id="edge2" class="edge">
<title>AdminRoutingModule&#45;&gt;AdminModule</title>
<path fill="none" stroke="black" d="M302,-161.02C302,-161.02 302,-182.53 302,-182.53"/>
<polygon fill="black" stroke="black" points="298.5,-182.53 302,-192.53 305.5,-182.53 298.5,-182.53"/>
</g>
<!-- SharedModule -->
<g id="node4" class="node">
<title>SharedModule</title>
<polygon fill="#8dd3c7" stroke="black" points="490.43,-160.8 487.43,-164.8 466.43,-164.8 463.43,-160.8 391.57,-160.8 391.57,-124.8 490.43,-124.8 490.43,-160.8"/>
<text text-anchor="middle" x="441" y="-138.6" font-family="Times,serif" font-size="14.00">SharedModule</text>
</g>
<!-- SharedModule&#45;&gt;AdminModule -->
<g id="edge3" class="edge">
<title>SharedModule&#45;&gt;AdminModule</title>
<path fill="none" stroke="black" d="M462.09,-161.02C462.09,-181.17 462.09,-210.8 462.09,-210.8 462.09,-210.8 361.34,-210.8 361.34,-210.8"/>
<polygon fill="black" stroke="black" points="361.34,-207.3 351.34,-210.8 361.34,-214.3 361.34,-207.3"/>
</g>
<!-- AppModule -->
<g id="node7" class="node">
<title>AppModule</title>
<polygon fill="#8dd3c7" stroke="black" points="757.66,-304.8 754.66,-308.8 733.66,-308.8 730.66,-304.8 674.34,-304.8 674.34,-268.8 757.66,-268.8 757.66,-304.8"/>
<text text-anchor="middle" x="716" y="-282.6" font-family="Times,serif" font-size="14.00">AppModule</text>
</g>
<!-- SharedModule&#45;&gt;AppModule -->
<g id="edge8" class="edge">
<title>SharedModule&#45;&gt;AppModule</title>
<path fill="none" stroke="black" d="M476.15,-160.89C476.15,-200.79 476.15,-292.8 476.15,-292.8 476.15,-292.8 664.22,-292.8 664.22,-292.8"/>
<polygon fill="black" stroke="black" points="664.22,-296.3 674.22,-292.8 664.22,-289.3 664.22,-296.3"/>
</g>
<!-- CartModule -->
<g id="node9" class="node">
<title>CartModule</title>
<polygon fill="#8dd3c7" stroke="black" points="1022.66,-228.8 1019.66,-232.8 998.66,-232.8 995.66,-228.8 939.34,-228.8 939.34,-192.8 1022.66,-192.8 1022.66,-228.8"/>
<text text-anchor="middle" x="981" y="-206.6" font-family="Times,serif" font-size="14.00">CartModule</text>
</g>
<!-- SharedModule&#45;&gt;CartModule -->
<g id="edge14" class="edge">
<title>SharedModule&#45;&gt;CartModule</title>
<path fill="none" stroke="black" d="M490.35,-157.8C623.66,-157.8 981,-157.8 981,-157.8 981,-157.8 981,-182.56 981,-182.56"/>
<polygon fill="black" stroke="black" points="977.5,-182.56 981,-192.56 984.5,-182.56 977.5,-182.56"/>
</g>
<!-- AuthModule -->
<g id="node13" class="node">
<title>AuthModule</title>
<polygon fill="#8dd3c7" stroke="black" points="3540.55,-228.8 3537.55,-232.8 3516.55,-232.8 3513.55,-228.8 3453.45,-228.8 3453.45,-192.8 3540.55,-192.8 3540.55,-228.8"/>
<text text-anchor="middle" x="3497" y="-206.6" font-family="Times,serif" font-size="14.00">AuthModule</text>
</g>
<!-- SharedModule&#45;&gt;AuthModule -->
<g id="edge12" class="edge">
<title>SharedModule&#45;&gt;AuthModule</title>
<path fill="none" stroke="black" d="M490.47,-128.8C876.99,-128.8 3398,-128.8 3398,-128.8 3398,-128.8 3398,-210.8 3398,-210.8 3398,-210.8 3443.29,-210.8 3443.29,-210.8"/>
<polygon fill="black" stroke="black" points="3443.29,-214.3 3453.29,-210.8 3443.29,-207.3 3443.29,-214.3"/>
</g>
<!-- ProductsModule -->
<g id="node20" class="node">
<title>ProductsModule</title>
<polygon fill="#8dd3c7" stroke="black" points="1896.05,-304.8 1893.05,-308.8 1872.05,-308.8 1869.05,-304.8 1787.95,-304.8 1787.95,-268.8 1896.05,-268.8 1896.05,-304.8"/>
<text text-anchor="middle" x="1842" y="-282.6" font-family="Times,serif" font-size="14.00">ProductsModule</text>
</g>
<!-- SharedModule&#45;&gt;ProductsModule -->
<g id="edge22" class="edge">
<title>SharedModule&#45;&gt;ProductsModule</title>
<path fill="none" stroke="black" d="M490.38,-153.8C682.78,-153.8 1371.65,-153.8 1371.65,-153.8 1371.65,-153.8 1371.65,-290.8 1371.65,-290.8 1371.65,-290.8 1777.58,-290.8 1777.58,-290.8"/>
<polygon fill="black" stroke="black" points="1777.58,-294.3 1787.58,-290.8 1777.58,-287.3 1777.58,-294.3"/>
</g>
<!-- RolesPermissionsModule -->
<g id="node24" class="node">
<title>RolesPermissionsModule</title>
<polygon fill="#8dd3c7" stroke="black" points="4058.62,-228.8 4055.62,-232.8 4034.62,-232.8 4031.62,-228.8 3899.38,-228.8 3899.38,-192.8 4058.62,-192.8 4058.62,-228.8"/>
<text text-anchor="middle" x="3979" y="-206.6" font-family="Times,serif" font-size="14.00">RolesPermissionsModule</text>
</g>
<!-- SharedModule&#45;&gt;RolesPermissionsModule -->
<g id="edge26" class="edge">
<title>SharedModule&#45;&gt;RolesPermissionsModule</title>
<path fill="none" stroke="black" d="M405.85,-160.95C405.85,-173.07 405.85,-186.8 405.85,-186.8 405.85,-186.8 3927.67,-186.8 3927.67,-186.8 3927.67,-186.8 3927.67,-187.38 3927.67,-187.38"/>
<polygon fill="black" stroke="black" points="3924.17,-182.61 3927.67,-192.61 3931.17,-182.61 3924.17,-182.61"/>
</g>
<!-- AddInCartModalComponent  -->
<g id="node29" class="node">
<title>AddInCartModalComponent </title>
<polygon fill="#fb8072" stroke="black" points="2681.76,-228.8 2500.24,-228.8 2500.24,-192.8 2681.76,-192.8 2681.76,-228.8"/>
<text text-anchor="middle" x="2591" y="-206.6" font-family="Times,serif" font-size="14.00">AddInCartModalComponent </text>
</g>
<!-- SharedModule&#45;&gt;AddInCartModalComponent  -->
<g id="edge30" class="edge">
<title>SharedModule&#45;&gt;AddInCartModalComponent </title>
<path fill="none" stroke="black" stroke-dasharray="5,2" d="M490.46,-146.8C811.88,-146.8 2591,-146.8 2591,-146.8 2591,-146.8 2591,-182.63 2591,-182.63"/>
<polygon fill="black" stroke="black" points="2587.5,-182.63 2591,-192.63 2594.5,-182.63 2587.5,-182.63"/>
</g>
<!-- ErrorModalComponent  -->
<g id="node30" class="node">
<title>ErrorModalComponent </title>
<polygon fill="#fb8072" stroke="black" points="2482.42,-228.8 2331.58,-228.8 2331.58,-192.8 2482.42,-192.8 2482.42,-228.8"/>
<text text-anchor="middle" x="2407" y="-206.6" font-family="Times,serif" font-size="14.00">ErrorModalComponent </text>
</g>
<!-- SharedModule&#45;&gt;ErrorModalComponent  -->
<g id="edge31" class="edge">
<title>SharedModule&#45;&gt;ErrorModalComponent </title>
<path fill="none" stroke="black" stroke-dasharray="5,2" d="M490.58,-150.8C795.82,-150.8 2407,-150.8 2407,-150.8 2407,-150.8 2407,-182.8 2407,-182.8"/>
<polygon fill="black" stroke="black" points="2403.5,-182.8 2407,-192.8 2410.5,-182.8 2403.5,-182.8"/>
</g>
<!-- FileUploadComponent  -->
<g id="node31" class="node">
<title>FileUploadComponent </title>
<polygon fill="#fb8072" stroke="black" points="2847.82,-228.8 2700.18,-228.8 2700.18,-192.8 2847.82,-192.8 2847.82,-228.8"/>
<text text-anchor="middle" x="2774" y="-206.6" font-family="Times,serif" font-size="14.00">FileUploadComponent </text>
</g>
<!-- SharedModule&#45;&gt;FileUploadComponent  -->
<g id="edge32" class="edge">
<title>SharedModule&#45;&gt;FileUploadComponent </title>
<path fill="none" stroke="black" stroke-dasharray="5,2" d="M490.27,-142.8C826.84,-142.8 2774,-142.8 2774,-142.8 2774,-142.8 2774,-182.58 2774,-182.58"/>
<polygon fill="black" stroke="black" points="2770.5,-182.58 2774,-192.58 2777.5,-182.58 2770.5,-182.58"/>
</g>
<!-- ShoppingListsModule -->
<g id="node34" class="node">
<title>ShoppingListsModule</title>
<polygon fill="#8dd3c7" stroke="black" points="4706.46,-228.8 4703.46,-232.8 4682.46,-232.8 4679.46,-228.8 4565.54,-228.8 4565.54,-192.8 4706.46,-192.8 4706.46,-228.8"/>
<text text-anchor="middle" x="4636" y="-206.6" font-family="Times,serif" font-size="14.00">ShoppingListsModule</text>
</g>
<!-- SharedModule&#45;&gt;ShoppingListsModule -->
<g id="edge35" class="edge">
<title>SharedModule&#45;&gt;ShoppingListsModule</title>
<path fill="none" stroke="black" d="M419.91,-160.91C419.91,-170.7 419.91,-180.8 419.91,-180.8 419.91,-180.8 4587.11,-180.8 4587.11,-180.8 4587.11,-180.8 4587.11,-182.66 4587.11,-182.66"/>
<polygon fill="black" stroke="black" points="4583.61,-182.66 4587.11,-192.66 4590.61,-182.66 4583.61,-182.66"/>
</g>
<!-- StockModule -->
<g id="node37" class="node">
<title>StockModule</title>
<polygon fill="#8dd3c7" stroke="black" points="5130.94,-228.8 5127.94,-232.8 5106.94,-232.8 5103.94,-228.8 5039.06,-228.8 5039.06,-192.8 5130.94,-192.8 5130.94,-228.8"/>
<text text-anchor="middle" x="5085" y="-206.6" font-family="Times,serif" font-size="14.00">StockModule</text>
</g>
<!-- SharedModule&#45;&gt;StockModule -->
<g id="edge38" class="edge">
<title>SharedModule&#45;&gt;StockModule</title>
<path fill="none" stroke="black" d="M433.97,-160.83C433.97,-167.65 433.97,-173.8 433.97,-173.8 433.97,-173.8 5069.76,-173.8 5069.76,-173.8 5069.76,-173.8 5069.76,-182.73 5069.76,-182.73"/>
<polygon fill="black" stroke="black" points="5066.26,-182.73 5069.76,-192.73 5073.26,-182.73 5066.26,-182.73"/>
</g>
<!-- UsersModule -->
<g id="node42" class="node">
<title>UsersModule</title>
<polygon fill="#8dd3c7" stroke="black" points="5623.94,-228.8 5620.94,-232.8 5599.94,-232.8 5596.94,-228.8 5532.06,-228.8 5532.06,-192.8 5623.94,-192.8 5623.94,-228.8"/>
<text text-anchor="middle" x="5578" y="-206.6" font-family="Times,serif" font-size="14.00">UsersModule</text>
</g>
<!-- SharedModule&#45;&gt;UsersModule -->
<g id="edge43" class="edge">
<title>SharedModule&#45;&gt;UsersModule</title>
<path fill="none" stroke="black" d="M448.03,-160.97C448.03,-164.85 448.03,-167.8 448.03,-167.8 448.03,-167.8 5562.76,-167.8 5562.76,-167.8 5562.76,-167.8 5562.76,-182.31 5562.76,-182.31"/>
<polygon fill="black" stroke="black" points="5559.26,-182.31 5562.76,-192.31 5566.26,-182.31 5559.26,-182.31"/>
</g>
<!-- AppComponent -->
<g id="node5" class="node">
<title>AppComponent</title>
<polygon fill="#ffffb3" stroke="black" points="768.94,-228.8 663.06,-228.8 663.06,-192.8 768.94,-192.8 768.94,-228.8"/>
<text text-anchor="middle" x="716" y="-206.6" font-family="Times,serif" font-size="14.00">AppComponent</text>
</g>
<!-- AppComponent&#45;&gt;AppModule -->
<g id="edge4" class="edge">
<title>AppComponent&#45;&gt;AppModule</title>
<path fill="none" stroke="black" d="M716,-228.81C716,-228.81 716,-258.65 716,-258.65"/>
<polygon fill="black" stroke="black" points="712.5,-258.65 716,-268.65 719.5,-258.65 712.5,-258.65"/>
</g>
<!-- HomeComponent -->
<g id="node6" class="node">
<title>HomeComponent</title>
<polygon fill="#ffffb3" stroke="black" points="645.55,-228.8 530.45,-228.8 530.45,-192.8 645.55,-192.8 645.55,-228.8"/>
<text text-anchor="middle" x="588" y="-206.6" font-family="Times,serif" font-size="14.00">HomeComponent</text>
</g>
<!-- HomeComponent&#45;&gt;AppModule -->
<g id="edge5" class="edge">
<title>HomeComponent&#45;&gt;AppModule</title>
<path fill="none" stroke="black" d="M588,-228.83C588,-249.57 588,-280.8 588,-280.8 588,-280.8 664.09,-280.8 664.09,-280.8"/>
<polygon fill="black" stroke="black" points="664.09,-284.3 674.09,-280.8 664.09,-277.3 664.09,-284.3"/>
</g>
<!-- AppComponent  -->
<g id="node10" class="node">
<title>AppComponent </title>
<polygon fill="#80b1d3" stroke="black" points="770.44,-372.8 661.56,-372.8 661.56,-336.8 770.44,-336.8 770.44,-372.8"/>
<text text-anchor="middle" x="716" y="-350.6" font-family="Times,serif" font-size="14.00">AppComponent </text>
</g>
<!-- AppModule&#45;&gt;AppComponent  -->
<g id="edge9" class="edge">
<title>AppModule&#45;&gt;AppComponent </title>
<path fill="none" stroke="black" stroke-dasharray="1,5" d="M716,-305.02C716,-305.02 716,-326.53 716,-326.53"/>
<polygon fill="black" stroke="black" points="712.5,-326.53 716,-336.53 719.5,-326.53 712.5,-326.53"/>
</g>
<!-- AppRoutingModule -->
<g id="node8" class="node">
<title>AppRoutingModule</title>
<polygon fill="#8dd3c7" stroke="black" points="921.28,-228.8 918.28,-232.8 897.28,-232.8 894.28,-228.8 792.72,-228.8 792.72,-192.8 921.28,-192.8 921.28,-228.8"/>
<text text-anchor="middle" x="857" y="-206.6" font-family="Times,serif" font-size="14.00">AppRoutingModule</text>
</g>
<!-- AppRoutingModule&#45;&gt;AppModule -->
<g id="edge6" class="edge">
<title>AppRoutingModule&#45;&gt;AppModule</title>
<path fill="none" stroke="black" d="M857,-228.81C857,-251.29 857,-286.8 857,-286.8 857,-286.8 767.92,-286.8 767.92,-286.8"/>
<polygon fill="black" stroke="black" points="767.92,-283.3 757.92,-286.8 767.92,-290.3 767.92,-283.3"/>
</g>
<!-- CartModule&#45;&gt;AppModule -->
<g id="edge7" class="edge">
<title>CartModule&#45;&gt;AppModule</title>
<path fill="none" stroke="black" d="M967.06,-228.83C967.06,-253.78 967.06,-295.8 967.06,-295.8 967.06,-295.8 767.74,-295.8 767.74,-295.8"/>
<polygon fill="black" stroke="black" points="767.74,-292.3 757.74,-295.8 767.74,-299.3 767.74,-292.3"/>
</g>
<!-- CartListComponent  -->
<g id="node15" class="node">
<title>CartListComponent </title>
<polygon fill="#fb8072" stroke="black" points="1193.21,-304.8 1062.79,-304.8 1062.79,-268.8 1193.21,-268.8 1193.21,-304.8"/>
<text text-anchor="middle" x="1128" y="-282.6" font-family="Times,serif" font-size="14.00">CartListComponent </text>
</g>
<!-- CartModule&#45;&gt;CartListComponent  -->
<g id="edge15" class="edge">
<title>CartModule&#45;&gt;CartListComponent </title>
<path fill="none" stroke="black" stroke-dasharray="5,2" d="M994.94,-229.11C994.94,-248.95 994.94,-277.8 994.94,-277.8 994.94,-277.8 1052.64,-277.8 1052.64,-277.8"/>
<polygon fill="black" stroke="black" points="1052.64,-281.3 1062.64,-277.8 1052.64,-274.3 1052.64,-281.3"/>
</g>
<!-- CartModule&#45;&gt;ProductsModule -->
<g id="edge20" class="edge">
<title>CartModule&#45;&gt;ProductsModule</title>
<path fill="none" stroke="black" d="M1022.8,-204.8C1120.99,-204.8 1358.13,-204.8 1358.13,-204.8 1358.13,-204.8 1358.13,-297.8 1358.13,-297.8 1358.13,-297.8 1777.9,-297.8 1777.9,-297.8"/>
<polygon fill="black" stroke="black" points="1777.9,-301.3 1787.9,-297.8 1777.9,-294.3 1777.9,-301.3"/>
</g>
<!-- LoginFormComponent -->
<g id="node11" class="node">
<title>LoginFormComponent</title>
<polygon fill="#ffffb3" stroke="black" points="3739.61,-160.8 3594.39,-160.8 3594.39,-124.8 3739.61,-124.8 3739.61,-160.8"/>
<text text-anchor="middle" x="3667" y="-138.6" font-family="Times,serif" font-size="14.00">LoginFormComponent</text>
</g>
<!-- LoginFormComponent&#45;&gt;AuthModule -->
<g id="edge10" class="edge">
<title>LoginFormComponent&#45;&gt;AuthModule</title>
<path fill="none" stroke="black" d="M3667,-161.02C3667,-181.17 3667,-210.8 3667,-210.8 3667,-210.8 3550.78,-210.8 3550.78,-210.8"/>
<polygon fill="black" stroke="black" points="3550.78,-207.3 3540.78,-210.8 3550.78,-214.3 3550.78,-207.3"/>
</g>
<!-- RegisterFormComponent -->
<g id="node12" class="node">
<title>RegisterFormComponent</title>
<polygon fill="#ffffb3" stroke="black" points="3576.32,-160.8 3417.68,-160.8 3417.68,-124.8 3576.32,-124.8 3576.32,-160.8"/>
<text text-anchor="middle" x="3497" y="-138.6" font-family="Times,serif" font-size="14.00">RegisterFormComponent</text>
</g>
<!-- RegisterFormComponent&#45;&gt;AuthModule -->
<g id="edge11" class="edge">
<title>RegisterFormComponent&#45;&gt;AuthModule</title>
<path fill="none" stroke="black" d="M3497,-161.02C3497,-161.02 3497,-182.53 3497,-182.53"/>
<polygon fill="black" stroke="black" points="3493.5,-182.53 3497,-192.53 3500.5,-182.53 3493.5,-182.53"/>
</g>
<!-- CartListComponent -->
<g id="node14" class="node">
<title>CartListComponent</title>
<polygon fill="#ffffb3" stroke="black" points="1344.71,-304.8 1217.29,-304.8 1217.29,-268.8 1344.71,-268.8 1344.71,-304.8"/>
<text text-anchor="middle" x="1281" y="-282.6" font-family="Times,serif" font-size="14.00">CartListComponent</text>
</g>
<!-- CartListComponent&#45;&gt;CartModule -->
<g id="edge13" class="edge">
<title>CartListComponent&#45;&gt;CartModule</title>
<path fill="none" stroke="black" d="M1281,-268.77C1281,-248.03 1281,-216.8 1281,-216.8 1281,-216.8 1032.71,-216.8 1032.71,-216.8"/>
<polygon fill="black" stroke="black" points="1032.71,-213.3 1022.71,-216.8 1032.71,-220.3 1032.71,-213.3"/>
</g>
<!-- CreateProductComponent -->
<g id="node16" class="node">
<title>CreateProductComponent</title>
<polygon fill="#ffffb3" stroke="black" points="1922.91,-228.8 1761.09,-228.8 1761.09,-192.8 1922.91,-192.8 1922.91,-228.8"/>
<text text-anchor="middle" x="1842" y="-206.6" font-family="Times,serif" font-size="14.00">CreateProductComponent</text>
</g>
<!-- CreateProductComponent&#45;&gt;ProductsModule -->
<g id="edge16" class="edge">
<title>CreateProductComponent&#45;&gt;ProductsModule</title>
<path fill="none" stroke="black" d="M1842,-228.81C1842,-228.81 1842,-258.65 1842,-258.65"/>
<polygon fill="black" stroke="black" points="1838.5,-258.65 1842,-268.65 1845.5,-258.65 1838.5,-258.65"/>
</g>
<!-- ProductContainerComponent -->
<g id="node17" class="node">
<title>ProductContainerComponent</title>
<polygon fill="#ffffb3" stroke="black" points="1743.09,-228.8 1562.91,-228.8 1562.91,-192.8 1743.09,-192.8 1743.09,-228.8"/>
<text text-anchor="middle" x="1653" y="-206.6" font-family="Times,serif" font-size="14.00">ProductContainerComponent</text>
</g>
<!-- ProductContainerComponent&#45;&gt;ProductsModule -->
<g id="edge17" class="edge">
<title>ProductContainerComponent&#45;&gt;ProductsModule</title>
<path fill="none" stroke="black" d="M1653,-228.83C1653,-248.38 1653,-276.8 1653,-276.8 1653,-276.8 1777.84,-276.8 1777.84,-276.8"/>
<polygon fill="black" stroke="black" points="1777.84,-280.3 1787.84,-276.8 1777.84,-273.3 1777.84,-280.3"/>
</g>
<!-- ProductListComponent -->
<g id="node18" class="node">
<title>ProductListComponent</title>
<polygon fill="#ffffb3" stroke="black" points="2270.16,-228.8 2123.84,-228.8 2123.84,-192.8 2270.16,-192.8 2270.16,-228.8"/>
<text text-anchor="middle" x="2197" y="-206.6" font-family="Times,serif" font-size="14.00">ProductListComponent</text>
</g>
<!-- ProductListComponent&#45;&gt;ProductsModule -->
<g id="edge18" class="edge">
<title>ProductListComponent&#45;&gt;ProductsModule</title>
<path fill="none" stroke="black" d="M2197,-229C2197,-253.16 2197,-292.8 2197,-292.8 2197,-292.8 1906.3,-292.8 1906.3,-292.8"/>
<polygon fill="black" stroke="black" points="1906.3,-289.3 1896.3,-292.8 1906.3,-296.3 1906.3,-289.3"/>
</g>
<!-- UpdateProductComponent -->
<g id="node19" class="node">
<title>UpdateProductComponent</title>
<polygon fill="#ffffb3" stroke="black" points="2105.81,-228.8 1940.19,-228.8 1940.19,-192.8 2105.81,-192.8 2105.81,-228.8"/>
<text text-anchor="middle" x="2023" y="-206.6" font-family="Times,serif" font-size="14.00">UpdateProductComponent</text>
</g>
<!-- UpdateProductComponent&#45;&gt;ProductsModule -->
<g id="edge19" class="edge">
<title>UpdateProductComponent&#45;&gt;ProductsModule</title>
<path fill="none" stroke="black" d="M2023,-228.83C2023,-249.57 2023,-280.8 2023,-280.8 2023,-280.8 1906.31,-280.8 1906.31,-280.8"/>
<polygon fill="black" stroke="black" points="1906.31,-277.3 1896.31,-280.8 1906.31,-284.3 1906.31,-277.3"/>
</g>
<!-- ProductsRoutingModule -->
<g id="node21" class="node">
<title>ProductsRoutingModule</title>
<polygon fill="#8dd3c7" stroke="black" points="1538.67,-228.8 1535.67,-232.8 1514.67,-232.8 1511.67,-228.8 1385.33,-228.8 1385.33,-192.8 1538.67,-192.8 1538.67,-228.8"/>
<text text-anchor="middle" x="1462" y="-206.6" font-family="Times,serif" font-size="14.00">ProductsRoutingModule</text>
</g>
<!-- ProductsRoutingModule&#45;&gt;ProductsModule -->
<g id="edge21" class="edge">
<title>ProductsRoutingModule&#45;&gt;ProductsModule</title>
<path fill="none" stroke="black" d="M1462,-228.84C1462,-250.46 1462,-283.8 1462,-283.8 1462,-283.8 1777.56,-283.8 1777.56,-283.8"/>
<polygon fill="black" stroke="black" points="1777.56,-287.3 1787.56,-283.8 1777.56,-280.3 1777.56,-287.3"/>
</g>
<!-- RolePermissionsAssignmentComponent -->
<g id="node22" class="node">
<title>RolePermissionsAssignmentComponent</title>
<polygon fill="#ffffb3" stroke="black" points="4404.34,-160.8 4161.66,-160.8 4161.66,-124.8 4404.34,-124.8 4404.34,-160.8"/>
<text text-anchor="middle" x="4283" y="-138.6" font-family="Times,serif" font-size="14.00">RolePermissionsAssignmentComponent</text>
</g>
<!-- RolePermissionsAssignmentComponent&#45;&gt;RolesPermissionsModule -->
<g id="edge23" class="edge">
<title>RolePermissionsAssignmentComponent&#45;&gt;RolesPermissionsModule</title>
<path fill="none" stroke="black" d="M4283,-161.02C4283,-181.17 4283,-210.8 4283,-210.8 4283,-210.8 4068.87,-210.8 4068.87,-210.8"/>
<polygon fill="black" stroke="black" points="4068.87,-207.3 4058.87,-210.8 4068.87,-214.3 4068.87,-207.3"/>
</g>
<!-- RolesListComponent -->
<g id="node23" class="node">
<title>RolesListComponent</title>
<polygon fill="#ffffb3" stroke="black" points="4143.5,-160.8 4008.5,-160.8 4008.5,-124.8 4143.5,-124.8 4143.5,-160.8"/>
<text text-anchor="middle" x="4076" y="-138.6" font-family="Times,serif" font-size="14.00">RolesListComponent</text>
</g>
<!-- RolesListComponent&#45;&gt;RolesPermissionsModule -->
<g id="edge24" class="edge">
<title>RolesListComponent&#45;&gt;RolesPermissionsModule</title>
<path fill="none" stroke="black" d="M4033.53,-161.02C4033.53,-161.02 4033.53,-182.53 4033.53,-182.53"/>
<polygon fill="black" stroke="black" points="4030.03,-182.53 4033.53,-192.53 4037.03,-182.53 4030.03,-182.53"/>
</g>
<!-- RolesPermissionsRoutingModule -->
<g id="node25" class="node">
<title>RolesPermissionsRoutingModule</title>
<polygon fill="#8dd3c7" stroke="black" points="3984.23,-160.8 3981.23,-164.8 3960.23,-164.8 3957.23,-160.8 3779.77,-160.8 3779.77,-124.8 3984.23,-124.8 3984.23,-160.8"/>
<text text-anchor="middle" x="3882" y="-138.6" font-family="Times,serif" font-size="14.00">RolesPermissionsRoutingModule</text>
</g>
<!-- RolesPermissionsRoutingModule&#45;&gt;RolesPermissionsModule -->
<g id="edge25" class="edge">
<title>RolesPermissionsRoutingModule&#45;&gt;RolesPermissionsModule</title>
<path fill="none" stroke="black" d="M3955.89,-161.02C3955.89,-161.02 3955.89,-182.53 3955.89,-182.53"/>
<polygon fill="black" stroke="black" points="3952.39,-182.53 3955.89,-192.53 3959.39,-182.53 3952.39,-182.53"/>
</g>
<!-- AddInCartModalComponent -->
<g id="node26" class="node">
<title>AddInCartModalComponent</title>
<polygon fill="#ffffb3" stroke="black" points="3215.76,-228.8 3038.24,-228.8 3038.24,-192.8 3215.76,-192.8 3215.76,-228.8"/>
<text text-anchor="middle" x="3127" y="-206.6" font-family="Times,serif" font-size="14.00">AddInCartModalComponent</text>
</g>
<!-- AddInCartModalComponent&#45;&gt;SharedModule -->
<g id="edge27" class="edge">
<title>AddInCartModalComponent&#45;&gt;SharedModule</title>
<path fill="none" stroke="black" d="M3127,-192.64C3127,-170.45 3127,-135.8 3127,-135.8 3127,-135.8 500.49,-135.8 500.49,-135.8"/>
<polygon fill="black" stroke="black" points="500.49,-132.3 490.49,-135.8 500.49,-139.3 500.49,-132.3"/>
</g>
<!-- ErrorModalComponent -->
<g id="node27" class="node">
<title>ErrorModalComponent</title>
<polygon fill="#ffffb3" stroke="black" points="3019.92,-228.8 2872.08,-228.8 2872.08,-192.8 3019.92,-192.8 3019.92,-228.8"/>
<text text-anchor="middle" x="2946" y="-206.6" font-family="Times,serif" font-size="14.00">ErrorModalComponent</text>
</g>
<!-- ErrorModalComponent&#45;&gt;SharedModule -->
<g id="edge28" class="edge">
<title>ErrorModalComponent&#45;&gt;SharedModule</title>
<path fill="none" stroke="black" d="M2946,-192.52C2946,-171.48 2946,-139.8 2946,-139.8 2946,-139.8 500.48,-139.8 500.48,-139.8"/>
<polygon fill="black" stroke="black" points="500.48,-136.3 490.48,-139.8 500.48,-143.3 500.48,-136.3"/>
</g>
<!-- FileUploadComponent -->
<g id="node28" class="node">
<title>FileUploadComponent</title>
<polygon fill="#ffffb3" stroke="black" points="3378.32,-228.8 3233.68,-228.8 3233.68,-192.8 3378.32,-192.8 3378.32,-228.8"/>
<text text-anchor="middle" x="3306" y="-206.6" font-family="Times,serif" font-size="14.00">FileUploadComponent</text>
</g>
<!-- FileUploadComponent&#45;&gt;SharedModule -->
<g id="edge29" class="edge">
<title>FileUploadComponent&#45;&gt;SharedModule</title>
<path fill="none" stroke="black" d="M3306,-192.71C3306,-169.67 3306,-132.8 3306,-132.8 3306,-132.8 500.43,-132.8 500.43,-132.8"/>
<polygon fill="black" stroke="black" points="500.43,-129.3 490.43,-132.8 500.43,-136.3 500.43,-129.3"/>
</g>
<!-- ListDetailsComponent -->
<g id="node32" class="node">
<title>ListDetailsComponent</title>
<polygon fill="#ffffb3" stroke="black" points="4977.27,-160.8 4834.73,-160.8 4834.73,-124.8 4977.27,-124.8 4977.27,-160.8"/>
<text text-anchor="middle" x="4906" y="-138.6" font-family="Times,serif" font-size="14.00">ListDetailsComponent</text>
</g>
<!-- ListDetailsComponent&#45;&gt;ShoppingListsModule -->
<g id="edge33" class="edge">
<title>ListDetailsComponent&#45;&gt;ShoppingListsModule</title>
<path fill="none" stroke="black" d="M4906,-161.02C4906,-181.17 4906,-210.8 4906,-210.8 4906,-210.8 4716.23,-210.8 4716.23,-210.8"/>
<polygon fill="black" stroke="black" points="4716.23,-207.3 4706.23,-210.8 4716.23,-214.3 4716.23,-207.3"/>
</g>
<!-- ShoppingListsComponent -->
<g id="node33" class="node">
<title>ShoppingListsComponent</title>
<polygon fill="#ffffb3" stroke="black" points="4816.23,-160.8 4653.77,-160.8 4653.77,-124.8 4816.23,-124.8 4816.23,-160.8"/>
<text text-anchor="middle" x="4735" y="-138.6" font-family="Times,serif" font-size="14.00">ShoppingListsComponent</text>
</g>
<!-- ShoppingListsComponent&#45;&gt;ShoppingListsModule -->
<g id="edge34" class="edge">
<title>ShoppingListsComponent&#45;&gt;ShoppingListsModule</title>
<path fill="none" stroke="black" d="M4680.06,-161.02C4680.06,-161.02 4680.06,-182.53 4680.06,-182.53"/>
<polygon fill="black" stroke="black" points="4676.56,-182.53 4680.06,-192.53 4683.56,-182.53 4676.56,-182.53"/>
</g>
<!-- ShoppingListsRoutingModule -->
<g id="node35" class="node">
<title>ShoppingListsRoutingModule</title>
<polygon fill="#8dd3c7" stroke="black" points="4629.57,-160.8 4626.57,-164.8 4605.57,-164.8 4602.57,-160.8 4444.43,-160.8 4444.43,-124.8 4629.57,-124.8 4629.57,-160.8"/>
<text text-anchor="middle" x="4537" y="-138.6" font-family="Times,serif" font-size="14.00">ShoppingListsRoutingModule</text>
</g>
<!-- ShoppingListsRoutingModule&#45;&gt;ShoppingListsModule -->
<g id="edge36" class="edge">
<title>ShoppingListsRoutingModule&#45;&gt;ShoppingListsModule</title>
<path fill="none" stroke="black" d="M4608.45,-161.02C4608.45,-161.02 4608.45,-182.53 4608.45,-182.53"/>
<polygon fill="black" stroke="black" points="4604.95,-182.53 4608.45,-192.53 4611.95,-182.53 4604.95,-182.53"/>
</g>
<!-- StockListComponent -->
<g id="node36" class="node">
<title>StockListComponent</title>
<polygon fill="#ffffb3" stroke="black" points="5312.5,-160.8 5177.5,-160.8 5177.5,-124.8 5312.5,-124.8 5312.5,-160.8"/>
<text text-anchor="middle" x="5245" y="-138.6" font-family="Times,serif" font-size="14.00">StockListComponent</text>
</g>
<!-- StockListComponent&#45;&gt;StockModule -->
<g id="edge37" class="edge">
<title>StockListComponent&#45;&gt;StockModule</title>
<path fill="none" stroke="black" d="M5245,-161.07C5245,-179.36 5245,-204.8 5245,-204.8 5245,-204.8 5140.85,-204.8 5140.85,-204.8"/>
<polygon fill="black" stroke="black" points="5140.85,-201.3 5130.85,-204.8 5140.85,-208.3 5140.85,-201.3"/>
</g>
<!-- StockRoutingModule -->
<g id="node38" class="node">
<title>StockRoutingModule</title>
<polygon fill="#8dd3c7" stroke="black" points="5153.06,-160.8 5150.06,-164.8 5129.06,-164.8 5126.06,-160.8 5016.94,-160.8 5016.94,-124.8 5153.06,-124.8 5153.06,-160.8"/>
<text text-anchor="middle" x="5085" y="-138.6" font-family="Times,serif" font-size="14.00">StockRoutingModule</text>
</g>
<!-- StockRoutingModule&#45;&gt;StockModule -->
<g id="edge39" class="edge">
<title>StockRoutingModule&#45;&gt;StockModule</title>
<path fill="none" stroke="black" d="M5100.24,-161.02C5100.24,-161.02 5100.24,-182.53 5100.24,-182.53"/>
<polygon fill="black" stroke="black" points="5096.74,-182.53 5100.24,-192.53 5103.74,-182.53 5096.74,-182.53"/>
</g>
<!-- UserDetailsComponent -->
<g id="node39" class="node">
<title>UserDetailsComponent</title>
<polygon fill="#ffffb3" stroke="black" points="5807.92,-160.8 5660.08,-160.8 5660.08,-124.8 5807.92,-124.8 5807.92,-160.8"/>
<text text-anchor="middle" x="5734" y="-138.6" font-family="Times,serif" font-size="14.00">UserDetailsComponent</text>
</g>
<!-- UserDetailsComponent&#45;&gt;UsersModule -->
<g id="edge40" class="edge">
<title>UserDetailsComponent&#45;&gt;UsersModule</title>
<path fill="none" stroke="black" d="M5734,-161.07C5734,-179.36 5734,-204.8 5734,-204.8 5734,-204.8 5633.96,-204.8 5633.96,-204.8"/>
<polygon fill="black" stroke="black" points="5633.96,-201.3 5623.96,-204.8 5633.96,-208.3 5633.96,-201.3"/>
</g>
<!-- UserListComponent -->
<g id="node40" class="node">
<title>UserListComponent</title>
<polygon fill="#ffffb3" stroke="black" points="5642.55,-160.8 5513.45,-160.8 5513.45,-124.8 5642.55,-124.8 5642.55,-160.8"/>
<text text-anchor="middle" x="5578" y="-138.6" font-family="Times,serif" font-size="14.00">UserListComponent</text>
</g>
<!-- UserListComponent&#45;&gt;UsersModule -->
<g id="edge41" class="edge">
<title>UserListComponent&#45;&gt;UsersModule</title>
<path fill="none" stroke="black" d="M5593.24,-161.02C5593.24,-161.02 5593.24,-182.53 5593.24,-182.53"/>
<polygon fill="black" stroke="black" points="5589.74,-182.53 5593.24,-192.53 5596.74,-182.53 5589.74,-182.53"/>
</g>
<!-- UsersFormComponent -->
<g id="node41" class="node">
<title>UsersFormComponent</title>
<polygon fill="#ffffb3" stroke="black" points="5968.55,-160.8 5825.45,-160.8 5825.45,-124.8 5968.55,-124.8 5968.55,-160.8"/>
<text text-anchor="middle" x="5897" y="-138.6" font-family="Times,serif" font-size="14.00">UsersFormComponent</text>
</g>
<!-- UsersFormComponent&#45;&gt;UsersModule -->
<g id="edge42" class="edge">
<title>UsersFormComponent&#45;&gt;UsersModule</title>
<path fill="none" stroke="black" d="M5897,-161.09C5897,-183.01 5897,-216.8 5897,-216.8 5897,-216.8 5634.04,-216.8 5634.04,-216.8"/>
<polygon fill="black" stroke="black" points="5634.04,-213.3 5624.04,-216.8 5634.04,-220.3 5634.04,-213.3"/>
</g>
<!-- UsersRoutingModule -->
<g id="node43" class="node">
<title>UsersRoutingModule</title>
<polygon fill="#8dd3c7" stroke="black" points="5489.05,-160.8 5486.05,-164.8 5465.05,-164.8 5462.05,-160.8 5352.95,-160.8 5352.95,-124.8 5489.05,-124.8 5489.05,-160.8"/>
<text text-anchor="middle" x="5421" y="-138.6" font-family="Times,serif" font-size="14.00">UsersRoutingModule</text>
</g>
<!-- UsersRoutingModule&#45;&gt;UsersModule -->
<g id="edge44" class="edge">
<title>UsersRoutingModule&#45;&gt;UsersModule</title>
<path fill="none" stroke="black" d="M5421,-161.09C5421,-183.01 5421,-216.8 5421,-216.8 5421,-216.8 5522.17,-216.8 5522.17,-216.8"/>
<polygon fill="black" stroke="black" points="5522.17,-220.3 5532.17,-216.8 5522.17,-213.3 5522.17,-220.3"/>
</g>
<!-- UsersService -->
<g id="node44" class="node">
<title>UsersService</title>
<ellipse fill="#fdb462" stroke="black" cx="5421" cy="-66.8" rx="61.97" ry="18"/>
<text text-anchor="middle" x="5421" y="-62.6" font-family="Times,serif" font-size="14.00">UsersService</text>
</g>
<!-- UsersService&#45;&gt;UsersRoutingModule -->
<g id="edge45" class="edge">
<title>UsersService&#45;&gt;UsersRoutingModule</title>
<path fill="none" stroke="black" d="M5421,-84.81C5421,-84.81 5421,-114.65 5421,-114.65"/>
<polygon fill="black" stroke="black" points="5417.5,-114.65 5421,-124.65 5424.5,-114.65 5417.5,-114.65"/>
</g>
</g>
</svg>
