<?xml version="1.0" encoding="UTF-8" standalone="no"?>
<!DOCTYPE svg PUBLIC "-//W3C//DTD SVG 1.1//EN"
 "http://www.w3.org/Graphics/SVG/1.1/DTD/svg11.dtd">
<!-- Generated by graphviz version 5.0.0 (20220707.1540)
 -->
<!-- Title: dependencies Pages: 1 -->
<svg width="789pt" height="174pt"
 viewBox="0.00 0.00 789.00 173.80" xmlns="http://www.w3.org/2000/svg" xmlns:xlink="http://www.w3.org/1999/xlink">
<g id="graph0" class="graph" transform="scale(1 1) rotate(0) translate(4 169.8)">
<title>dependencies</title>
<polygon fill="white" stroke="transparent" points="-4,4 -4,-169.8 785,-169.8 785,4 -4,4"/>
<text text-anchor="middle" x="390.5" y="-8.2" font-family="sans-serif" font-size="14.00">dependencies</text>
<g id="clust1" class="cluster">
<title>cluster_UsersModule</title>
<polygon fill="none" stroke="black" stroke-dasharray="1,5" points="8,-32.8 8,-157.8 773,-157.8 773,-32.8 8,-32.8"/>
</g>
<g id="clust6" class="cluster">
<title>cluster_UsersModule_imports</title>
<polygon fill="none" stroke="black" points="497,-40.8 497,-92.8 765,-92.8 765,-40.8 497,-40.8"/>
</g>
<g id="clust2" class="cluster">
<title>cluster_UsersModule_declarations</title>
<polygon fill="none" stroke="black" points="16,-40.8 16,-92.8 489,-92.8 489,-40.8 16,-40.8"/>
</g>
<!-- UserDetailsComponent -->
<g id="node1" class="node">
<title>UserDetailsComponent</title>
<polygon fill="#ffffb3" stroke="black" points="480.92,-84.8 333.08,-84.8 333.08,-48.8 480.92,-48.8 480.92,-84.8"/>
<text text-anchor="middle" x="407" y="-62.6" font-family="Times,serif" font-size="14.00">UserDetailsComponent</text>
</g>
<!-- UsersModule -->
<g id="node4" class="node">
<title>UsersModule</title>
<polygon fill="#8dd3c7" stroke="black" points="452.94,-149.8 449.94,-153.8 428.94,-153.8 425.94,-149.8 361.06,-149.8 361.06,-113.8 452.94,-113.8 452.94,-149.8"/>
<text text-anchor="middle" x="407" y="-127.6" font-family="Times,serif" font-size="14.00">UsersModule</text>
</g>
<!-- UserDetailsComponent&#45;&gt;UsersModule -->
<g id="edge1" class="edge">
<title>UserDetailsComponent&#45;&gt;UsersModule</title>
<path fill="none" stroke="black" d="M407,-84.91C407,-84.91 407,-103.79 407,-103.79"/>
<polygon fill="black" stroke="black" points="403.5,-103.79 407,-113.79 410.5,-103.79 403.5,-103.79"/>
</g>
<!-- UserListComponent -->
<g id="node2" class="node">
<title>UserListComponent</title>
<polygon fill="#ffffb3" stroke="black" points="315.55,-84.8 186.45,-84.8 186.45,-48.8 315.55,-48.8 315.55,-84.8"/>
<text text-anchor="middle" x="251" y="-62.6" font-family="Times,serif" font-size="14.00">UserListComponent</text>
</g>
<!-- UserListComponent&#45;&gt;UsersModule -->
<g id="edge2" class="edge">
<title>UserListComponent&#45;&gt;UsersModule</title>
<path fill="none" stroke="black" d="M251,-84.82C251,-102.17 251,-125.8 251,-125.8 251,-125.8 351.04,-125.8 351.04,-125.8"/>
<polygon fill="black" stroke="black" points="351.04,-129.3 361.04,-125.8 351.04,-122.3 351.04,-129.3"/>
</g>
<!-- UsersFormComponent -->
<g id="node3" class="node">
<title>UsersFormComponent</title>
<polygon fill="#ffffb3" stroke="black" points="167.55,-84.8 24.45,-84.8 24.45,-48.8 167.55,-48.8 167.55,-84.8"/>
<text text-anchor="middle" x="96" y="-62.6" font-family="Times,serif" font-size="14.00">UsersFormComponent</text>
</g>
<!-- UsersFormComponent&#45;&gt;UsersModule -->
<g id="edge3" class="edge">
<title>UsersFormComponent&#45;&gt;UsersModule</title>
<path fill="none" stroke="black" d="M96,-85.08C96,-106.12 96,-137.8 96,-137.8 96,-137.8 351.11,-137.8 351.11,-137.8"/>
<polygon fill="black" stroke="black" points="351.11,-141.3 361.11,-137.8 351.11,-134.3 351.11,-141.3"/>
</g>
<!-- SharedModule -->
<g id="node5" class="node">
<title>SharedModule</title>
<polygon fill="#8dd3c7" stroke="black" points="757.43,-84.8 754.43,-88.8 733.43,-88.8 730.43,-84.8 658.57,-84.8 658.57,-48.8 757.43,-48.8 757.43,-84.8"/>
<text text-anchor="middle" x="708" y="-62.6" font-family="Times,serif" font-size="14.00">SharedModule</text>
</g>
<!-- SharedModule&#45;&gt;UsersModule -->
<g id="edge4" class="edge">
<title>SharedModule&#45;&gt;UsersModule</title>
<path fill="none" stroke="black" d="M708,-85.08C708,-106.12 708,-137.8 708,-137.8 708,-137.8 463.04,-137.8 463.04,-137.8"/>
<polygon fill="black" stroke="black" points="463.04,-134.3 453.04,-137.8 463.04,-141.3 463.04,-134.3"/>
</g>
<!-- UsersRoutingModule -->
<g id="node6" class="node">
<title>UsersRoutingModule</title>
<polygon fill="#8dd3c7" stroke="black" points="641.05,-84.8 638.05,-88.8 617.05,-88.8 614.05,-84.8 504.95,-84.8 504.95,-48.8 641.05,-48.8 641.05,-84.8"/>
<text text-anchor="middle" x="573" y="-62.6" font-family="Times,serif" font-size="14.00">UsersRoutingModule</text>
</g>
<!-- UsersRoutingModule&#45;&gt;UsersModule -->
<g id="edge5" class="edge">
<title>UsersRoutingModule&#45;&gt;UsersModule</title>
<path fill="none" stroke="black" d="M573,-84.82C573,-102.17 573,-125.8 573,-125.8 573,-125.8 462.8,-125.8 462.8,-125.8"/>
<polygon fill="black" stroke="black" points="462.8,-122.3 452.8,-125.8 462.8,-129.3 462.8,-122.3"/>
</g>
</g>
</svg>
