<?xml version="1.0" encoding="UTF-8" standalone="no"?>
<!DOCTYPE svg PUBLIC "-//W3C//DTD SVG 1.1//EN"
 "http://www.w3.org/Graphics/SVG/1.1/DTD/svg11.dtd">
<!-- Generated by graphviz version 5.0.0 (20220707.1540)
 -->
<!-- Title: dependencies Pages: 1 -->
<svg width="1160pt" height="174pt"
 viewBox="0.00 0.00 1160.00 173.80" xmlns="http://www.w3.org/2000/svg" xmlns:xlink="http://www.w3.org/1999/xlink">
<g id="graph0" class="graph" transform="scale(1 1) rotate(0) translate(4 169.8)">
<title>dependencies</title>
<polygon fill="white" stroke="transparent" points="-4,4 -4,-169.8 1156,-169.8 1156,4 -4,4"/>
<text text-anchor="middle" x="576" y="-8.2" font-family="sans-serif" font-size="14.00">dependencies</text>
<g id="clust1" class="cluster">
<title>cluster_ProductsModule</title>
<polygon fill="none" stroke="black" stroke-dasharray="1,5" points="8,-32.8 8,-157.8 1144,-157.8 1144,-32.8 8,-32.8"/>
</g>
<g id="clust2" class="cluster">
<title>cluster_ProductsModule_declarations</title>
<polygon fill="none" stroke="black" points="412,-40.8 412,-92.8 1136,-92.8 1136,-40.8 412,-40.8"/>
</g>
<g id="clust7" class="cluster">
<title>cluster_ProductsModule_imports</title>
<polygon fill="none" stroke="black" points="16,-40.8 16,-92.8 404,-92.8 404,-40.8 16,-40.8"/>
</g>
<!-- CreateProductComponent -->
<g id="node1" class="node">
<title>CreateProductComponent</title>
<polygon fill="#ffffb3" stroke="black" points="1127.91,-84.8 966.09,-84.8 966.09,-48.8 1127.91,-48.8 1127.91,-84.8"/>
<text text-anchor="middle" x="1047" y="-62.6" font-family="Times,serif" font-size="14.00">CreateProductComponent</text>
</g>
<!-- ProductsModule -->
<g id="node5" class="node">
<title>ProductsModule</title>
<polygon fill="#8dd3c7" stroke="black" points="557.05,-149.8 554.05,-153.8 533.05,-153.8 530.05,-149.8 448.95,-149.8 448.95,-113.8 557.05,-113.8 557.05,-149.8"/>
<text text-anchor="middle" x="503" y="-127.6" font-family="Times,serif" font-size="14.00">ProductsModule</text>
</g>
<!-- CreateProductComponent&#45;&gt;ProductsModule -->
<g id="edge1" class="edge">
<title>CreateProductComponent&#45;&gt;ProductsModule</title>
<path fill="none" stroke="black" d="M1047,-85.09C1047,-107.01 1047,-140.8 1047,-140.8 1047,-140.8 567.15,-140.8 567.15,-140.8"/>
<polygon fill="black" stroke="black" points="567.15,-137.3 557.15,-140.8 567.15,-144.3 567.15,-137.3"/>
</g>
<!-- ProductContainerComponent -->
<g id="node2" class="node">
<title>ProductContainerComponent</title>
<polygon fill="#ffffb3" stroke="black" points="948.09,-84.8 767.91,-84.8 767.91,-48.8 948.09,-48.8 948.09,-84.8"/>
<text text-anchor="middle" x="858" y="-62.6" font-family="Times,serif" font-size="14.00">ProductContainerComponent</text>
</g>
<!-- ProductContainerComponent&#45;&gt;ProductsModule -->
<g id="edge2" class="edge">
<title>ProductContainerComponent&#45;&gt;ProductsModule</title>
<path fill="none" stroke="black" d="M858,-84.91C858,-104.14 858,-131.8 858,-131.8 858,-131.8 567.3,-131.8 567.3,-131.8"/>
<polygon fill="black" stroke="black" points="567.3,-128.3 557.3,-131.8 567.3,-135.3 567.3,-128.3"/>
</g>
<!-- ProductListComponent -->
<g id="node3" class="node">
<title>ProductListComponent</title>
<polygon fill="#ffffb3" stroke="black" points="750.16,-84.8 603.84,-84.8 603.84,-48.8 750.16,-48.8 750.16,-84.8"/>
<text text-anchor="middle" x="677" y="-62.6" font-family="Times,serif" font-size="14.00">ProductListComponent</text>
</g>
<!-- ProductListComponent&#45;&gt;ProductsModule -->
<g id="edge3" class="edge">
<title>ProductListComponent&#45;&gt;ProductsModule</title>
<path fill="none" stroke="black" d="M677,-84.83C677,-101.2 677,-122.8 677,-122.8 677,-122.8 567.1,-122.8 567.1,-122.8"/>
<polygon fill="black" stroke="black" points="567.1,-119.3 557.1,-122.8 567.1,-126.3 567.1,-119.3"/>
</g>
<!-- UpdateProductComponent -->
<g id="node4" class="node">
<title>UpdateProductComponent</title>
<polygon fill="#ffffb3" stroke="black" points="585.81,-84.8 420.19,-84.8 420.19,-48.8 585.81,-48.8 585.81,-84.8"/>
<text text-anchor="middle" x="503" y="-62.6" font-family="Times,serif" font-size="14.00">UpdateProductComponent</text>
</g>
<!-- UpdateProductComponent&#45;&gt;ProductsModule -->
<g id="edge4" class="edge">
<title>UpdateProductComponent&#45;&gt;ProductsModule</title>
<path fill="none" stroke="black" d="M503,-84.91C503,-84.91 503,-103.79 503,-103.79"/>
<polygon fill="black" stroke="black" points="499.5,-103.79 503,-113.79 506.5,-103.79 499.5,-103.79"/>
</g>
<!-- CartModule -->
<g id="node6" class="node">
<title>CartModule</title>
<polygon fill="#8dd3c7" stroke="black" points="395.66,-84.8 392.66,-88.8 371.66,-88.8 368.66,-84.8 312.34,-84.8 312.34,-48.8 395.66,-48.8 395.66,-84.8"/>
<text text-anchor="middle" x="354" y="-62.6" font-family="Times,serif" font-size="14.00">CartModule</text>
</g>
<!-- CartModule&#45;&gt;ProductsModule -->
<g id="edge5" class="edge">
<title>CartModule&#45;&gt;ProductsModule</title>
<path fill="none" stroke="black" d="M354,-84.83C354,-101.2 354,-122.8 354,-122.8 354,-122.8 438.79,-122.8 438.79,-122.8"/>
<polygon fill="black" stroke="black" points="438.79,-126.3 448.79,-122.8 438.79,-119.3 438.79,-126.3"/>
</g>
<!-- ProductsRoutingModule -->
<g id="node7" class="node">
<title>ProductsRoutingModule</title>
<polygon fill="#8dd3c7" stroke="black" points="293.67,-84.8 290.67,-88.8 269.67,-88.8 266.67,-84.8 140.33,-84.8 140.33,-48.8 293.67,-48.8 293.67,-84.8"/>
<text text-anchor="middle" x="217" y="-62.6" font-family="Times,serif" font-size="14.00">ProductsRoutingModule</text>
</g>
<!-- ProductsRoutingModule&#45;&gt;ProductsModule -->
<g id="edge6" class="edge">
<title>ProductsRoutingModule&#45;&gt;ProductsModule</title>
<path fill="none" stroke="black" d="M217,-84.91C217,-104.14 217,-131.8 217,-131.8 217,-131.8 438.87,-131.8 438.87,-131.8"/>
<polygon fill="black" stroke="black" points="438.87,-135.3 448.87,-131.8 438.87,-128.3 438.87,-135.3"/>
</g>
<!-- SharedModule -->
<g id="node8" class="node">
<title>SharedModule</title>
<polygon fill="#8dd3c7" stroke="black" points="122.43,-84.8 119.43,-88.8 98.43,-88.8 95.43,-84.8 23.57,-84.8 23.57,-48.8 122.43,-48.8 122.43,-84.8"/>
<text text-anchor="middle" x="73" y="-62.6" font-family="Times,serif" font-size="14.00">SharedModule</text>
</g>
<!-- SharedModule&#45;&gt;ProductsModule -->
<g id="edge7" class="edge">
<title>SharedModule&#45;&gt;ProductsModule</title>
<path fill="none" stroke="black" d="M73,-85.09C73,-107.01 73,-140.8 73,-140.8 73,-140.8 438.54,-140.8 438.54,-140.8"/>
<polygon fill="black" stroke="black" points="438.54,-144.3 448.54,-140.8 438.54,-137.3 438.54,-144.3"/>
</g>
</g>
</svg>
