<?xml version="1.0" encoding="UTF-8" standalone="no"?>
<!DOCTYPE svg PUBLIC "-//W3C//DTD SVG 1.1//EN"
 "http://www.w3.org/Graphics/SVG/1.1/DTD/svg11.dtd">
<!-- Generated by graphviz version 5.0.0 (20220707.1540)
 -->
<!-- Title: dependencies Pages: 1 -->
<svg width="665pt" height="247pt"
 viewBox="0.00 0.00 665.00 246.80" xmlns="http://www.w3.org/2000/svg" xmlns:xlink="http://www.w3.org/1999/xlink">
<g id="graph0" class="graph" transform="scale(1 1) rotate(0) translate(4 242.8)">
<title>dependencies</title>
<polygon fill="white" stroke="transparent" points="-4,4 -4,-242.8 661,-242.8 661,4 -4,4"/>
<text text-anchor="middle" x="328.5" y="-8.2" font-family="sans-serif" font-size="14.00">dependencies</text>
<g id="clust1" class="cluster">
<title>cluster_AppModule</title>
<polygon fill="none" stroke="black" stroke-dasharray="1,5" points="8,-32.8 8,-230.8 649,-230.8 649,-32.8 8,-32.8"/>
</g>
<g id="clust7" class="cluster">
<title>cluster_AppModule_bootstrap</title>
<polygon fill="none" stroke="black" points="244,-170.8 244,-222.8 368,-222.8 368,-170.8 244,-170.8"/>
</g>
<g id="clust2" class="cluster">
<title>cluster_AppModule_declarations</title>
<polygon fill="none" stroke="black" points="386,-40.8 386,-92.8 641,-92.8 641,-40.8 386,-40.8"/>
</g>
<g id="clust5" class="cluster">
<title>cluster_AppModule_imports</title>
<polygon fill="none" stroke="black" points="16,-40.8 16,-92.8 378,-92.8 378,-40.8 16,-40.8"/>
</g>
<!-- AppComponent -->
<g id="node1" class="node">
<title>AppComponent</title>
<polygon fill="#ffffb3" stroke="black" points="632.94,-84.8 527.06,-84.8 527.06,-48.8 632.94,-48.8 632.94,-84.8"/>
<text text-anchor="middle" x="580" y="-62.6" font-family="Times,serif" font-size="14.00">AppComponent</text>
</g>
<!-- AppModule -->
<g id="node3" class="node">
<title>AppModule</title>
<polygon fill="#8dd3c7" stroke="black" points="347.66,-149.8 344.66,-153.8 323.66,-153.8 320.66,-149.8 264.34,-149.8 264.34,-113.8 347.66,-113.8 347.66,-149.8"/>
<text text-anchor="middle" x="306" y="-127.6" font-family="Times,serif" font-size="14.00">AppModule</text>
</g>
<!-- AppComponent&#45;&gt;AppModule -->
<g id="edge1" class="edge">
<title>AppComponent&#45;&gt;AppModule</title>
<path fill="none" stroke="black" d="M580,-85.08C580,-106.12 580,-137.8 580,-137.8 580,-137.8 357.91,-137.8 357.91,-137.8"/>
<polygon fill="black" stroke="black" points="357.91,-134.3 347.91,-137.8 357.91,-141.3 357.91,-134.3"/>
</g>
<!-- HomeComponent -->
<g id="node2" class="node">
<title>HomeComponent</title>
<polygon fill="#ffffb3" stroke="black" points="509.55,-84.8 394.45,-84.8 394.45,-48.8 509.55,-48.8 509.55,-84.8"/>
<text text-anchor="middle" x="452" y="-62.6" font-family="Times,serif" font-size="14.00">HomeComponent</text>
</g>
<!-- HomeComponent&#45;&gt;AppModule -->
<g id="edge2" class="edge">
<title>HomeComponent&#45;&gt;AppModule</title>
<path fill="none" stroke="black" d="M452,-84.82C452,-102.17 452,-125.8 452,-125.8 452,-125.8 357.84,-125.8 357.84,-125.8"/>
<polygon fill="black" stroke="black" points="357.84,-122.3 347.84,-125.8 357.84,-129.3 357.84,-122.3"/>
</g>
<!-- AppComponent  -->
<g id="node7" class="node">
<title>AppComponent </title>
<polygon fill="#80b1d3" stroke="black" points="360.44,-214.8 251.56,-214.8 251.56,-178.8 360.44,-178.8 360.44,-214.8"/>
<text text-anchor="middle" x="306" y="-192.6" font-family="Times,serif" font-size="14.00">AppComponent </text>
</g>
<!-- AppModule&#45;&gt;AppComponent  -->
<g id="edge6" class="edge">
<title>AppModule&#45;&gt;AppComponent </title>
<path fill="none" stroke="black" stroke-dasharray="1,5" d="M306,-149.91C306,-149.91 306,-168.79 306,-168.79"/>
<polygon fill="black" stroke="black" points="302.5,-168.79 306,-178.79 309.5,-168.79 302.5,-168.79"/>
</g>
<!-- AppRoutingModule -->
<g id="node4" class="node">
<title>AppRoutingModule</title>
<polygon fill="#8dd3c7" stroke="black" points="370.28,-84.8 367.28,-88.8 346.28,-88.8 343.28,-84.8 241.72,-84.8 241.72,-48.8 370.28,-48.8 370.28,-84.8"/>
<text text-anchor="middle" x="306" y="-62.6" font-family="Times,serif" font-size="14.00">AppRoutingModule</text>
</g>
<!-- AppRoutingModule&#45;&gt;AppModule -->
<g id="edge3" class="edge">
<title>AppRoutingModule&#45;&gt;AppModule</title>
<path fill="none" stroke="black" d="M306,-84.91C306,-84.91 306,-103.79 306,-103.79"/>
<polygon fill="black" stroke="black" points="302.5,-103.79 306,-113.79 309.5,-103.79 302.5,-103.79"/>
</g>
<!-- CartModule -->
<g id="node5" class="node">
<title>CartModule</title>
<polygon fill="#8dd3c7" stroke="black" points="223.66,-84.8 220.66,-88.8 199.66,-88.8 196.66,-84.8 140.34,-84.8 140.34,-48.8 223.66,-48.8 223.66,-84.8"/>
<text text-anchor="middle" x="182" y="-62.6" font-family="Times,serif" font-size="14.00">CartModule</text>
</g>
<!-- CartModule&#45;&gt;AppModule -->
<g id="edge4" class="edge">
<title>CartModule&#45;&gt;AppModule</title>
<path fill="none" stroke="black" d="M182,-84.82C182,-102.17 182,-125.8 182,-125.8 182,-125.8 254.02,-125.8 254.02,-125.8"/>
<polygon fill="black" stroke="black" points="254.02,-129.3 264.02,-125.8 254.02,-122.3 254.02,-129.3"/>
</g>
<!-- SharedModule -->
<g id="node6" class="node">
<title>SharedModule</title>
<polygon fill="#8dd3c7" stroke="black" points="122.43,-84.8 119.43,-88.8 98.43,-88.8 95.43,-84.8 23.57,-84.8 23.57,-48.8 122.43,-48.8 122.43,-84.8"/>
<text text-anchor="middle" x="73" y="-62.6" font-family="Times,serif" font-size="14.00">SharedModule</text>
</g>
<!-- SharedModule&#45;&gt;AppModule -->
<g id="edge5" class="edge">
<title>SharedModule&#45;&gt;AppModule</title>
<path fill="none" stroke="black" d="M73,-85.08C73,-106.12 73,-137.8 73,-137.8 73,-137.8 254.08,-137.8 254.08,-137.8"/>
<polygon fill="black" stroke="black" points="254.08,-141.3 264.08,-137.8 254.08,-134.3 254.08,-141.3"/>
</g>
</g>
</svg>
