<?xml version="1.0" encoding="UTF-8" standalone="no"?>
<!DOCTYPE svg PUBLIC "-//W3C//DTD SVG 1.1//EN"
 "http://www.w3.org/Graphics/SVG/1.1/DTD/svg11.dtd">
<!-- Generated by graphviz version 5.0.0 (20220707.1540)
 -->
<!-- Title: dependencies Pages: 1 -->
<svg width="468pt" height="174pt"
 viewBox="0.00 0.00 468.00 173.80" xmlns="http://www.w3.org/2000/svg" xmlns:xlink="http://www.w3.org/1999/xlink">
<g id="graph0" class="graph" transform="scale(1 1) rotate(0) translate(4 169.8)">
<title>dependencies</title>
<polygon fill="white" stroke="transparent" points="-4,4 -4,-169.8 464,-169.8 464,4 -4,4"/>
<text text-anchor="middle" x="230" y="-8.2" font-family="sans-serif" font-size="14.00">dependencies</text>
<g id="clust1" class="cluster">
<title>cluster_StockModule</title>
<polygon fill="none" stroke="black" stroke-dasharray="1,5" points="8,-32.8 8,-157.8 452,-157.8 452,-32.8 8,-32.8"/>
</g>
<g id="clust4" class="cluster">
<title>cluster_StockModule_imports</title>
<polygon fill="none" stroke="black" points="176,-40.8 176,-92.8 444,-92.8 444,-40.8 176,-40.8"/>
</g>
<g id="clust2" class="cluster">
<title>cluster_StockModule_declarations</title>
<polygon fill="none" stroke="black" points="16,-40.8 16,-92.8 168,-92.8 168,-40.8 16,-40.8"/>
</g>
<!-- StockListComponent -->
<g id="node1" class="node">
<title>StockListComponent</title>
<polygon fill="#ffffb3" stroke="black" points="159.5,-84.8 24.5,-84.8 24.5,-48.8 159.5,-48.8 159.5,-84.8"/>
<text text-anchor="middle" x="92" y="-62.6" font-family="Times,serif" font-size="14.00">StockListComponent</text>
</g>
<!-- StockModule -->
<g id="node2" class="node">
<title>StockModule</title>
<polygon fill="#8dd3c7" stroke="black" points="297.94,-149.8 294.94,-153.8 273.94,-153.8 270.94,-149.8 206.06,-149.8 206.06,-113.8 297.94,-113.8 297.94,-149.8"/>
<text text-anchor="middle" x="252" y="-127.6" font-family="Times,serif" font-size="14.00">StockModule</text>
</g>
<!-- StockListComponent&#45;&gt;StockModule -->
<g id="edge1" class="edge">
<title>StockListComponent&#45;&gt;StockModule</title>
<path fill="none" stroke="black" d="M92,-84.91C92,-104.14 92,-131.8 92,-131.8 92,-131.8 196.15,-131.8 196.15,-131.8"/>
<polygon fill="black" stroke="black" points="196.15,-135.3 206.15,-131.8 196.15,-128.3 196.15,-135.3"/>
</g>
<!-- SharedModule -->
<g id="node3" class="node">
<title>SharedModule</title>
<polygon fill="#8dd3c7" stroke="black" points="436.43,-84.8 433.43,-88.8 412.43,-88.8 409.43,-84.8 337.57,-84.8 337.57,-48.8 436.43,-48.8 436.43,-84.8"/>
<text text-anchor="middle" x="387" y="-62.6" font-family="Times,serif" font-size="14.00">SharedModule</text>
</g>
<!-- SharedModule&#45;&gt;StockModule -->
<g id="edge2" class="edge">
<title>SharedModule&#45;&gt;StockModule</title>
<path fill="none" stroke="black" d="M387,-84.91C387,-104.14 387,-131.8 387,-131.8 387,-131.8 308.08,-131.8 308.08,-131.8"/>
<polygon fill="black" stroke="black" points="308.08,-128.3 298.08,-131.8 308.08,-135.3 308.08,-128.3"/>
</g>
<!-- StockRoutingModule -->
<g id="node4" class="node">
<title>StockRoutingModule</title>
<polygon fill="#8dd3c7" stroke="black" points="320.06,-84.8 317.06,-88.8 296.06,-88.8 293.06,-84.8 183.94,-84.8 183.94,-48.8 320.06,-48.8 320.06,-84.8"/>
<text text-anchor="middle" x="252" y="-62.6" font-family="Times,serif" font-size="14.00">StockRoutingModule</text>
</g>
<!-- StockRoutingModule&#45;&gt;StockModule -->
<g id="edge3" class="edge">
<title>StockRoutingModule&#45;&gt;StockModule</title>
<path fill="none" stroke="black" d="M252,-84.91C252,-84.91 252,-103.79 252,-103.79"/>
<polygon fill="black" stroke="black" points="248.5,-103.79 252,-113.79 255.5,-103.79 248.5,-103.79"/>
</g>
</g>
</svg>
