<?xml version="1.0" encoding="UTF-8" standalone="no"?>
<!DOCTYPE svg PUBLIC "-//W3C//DTD SVG 1.1//EN"
 "http://www.w3.org/Graphics/SVG/1.1/DTD/svg11.dtd">
<!-- Generated by graphviz version 5.0.0 (20220707.1540)
 -->
<!-- Title: dependencies Pages: 1 -->
<svg width="796pt" height="174pt"
 viewBox="0.00 0.00 796.00 173.80" xmlns="http://www.w3.org/2000/svg" xmlns:xlink="http://www.w3.org/1999/xlink">
<g id="graph0" class="graph" transform="scale(1 1) rotate(0) translate(4 169.8)">
<title>dependencies</title>
<polygon fill="white" stroke="transparent" points="-4,4 -4,-169.8 792,-169.8 792,4 -4,4"/>
<text text-anchor="middle" x="394" y="-8.2" font-family="sans-serif" font-size="14.00">dependencies</text>
<g id="clust1" class="cluster">
<title>cluster_RolesPermissionsModule</title>
<polygon fill="none" stroke="black" stroke-dasharray="1,5" points="8,-32.8 8,-157.8 780,-157.8 780,-32.8 8,-32.8"/>
</g>
<g id="clust5" class="cluster">
<title>cluster_RolesPermissionsModule_imports</title>
<polygon fill="none" stroke="black" points="436,-40.8 436,-92.8 772,-92.8 772,-40.8 436,-40.8"/>
</g>
<g id="clust2" class="cluster">
<title>cluster_RolesPermissionsModule_declarations</title>
<polygon fill="none" stroke="black" points="16,-40.8 16,-92.8 428,-92.8 428,-40.8 16,-40.8"/>
</g>
<!-- RolePermissionsAssignmentComponent -->
<g id="node1" class="node">
<title>RolePermissionsAssignmentComponent</title>
<polygon fill="#ffffb3" stroke="black" points="420.34,-84.8 177.66,-84.8 177.66,-48.8 420.34,-48.8 420.34,-84.8"/>
<text text-anchor="middle" x="299" y="-62.6" font-family="Times,serif" font-size="14.00">RolePermissionsAssignmentComponent</text>
</g>
<!-- RolesPermissionsModule -->
<g id="node3" class="node">
<title>RolesPermissionsModule</title>
<polygon fill="#8dd3c7" stroke="black" points="475.62,-149.8 472.62,-153.8 451.62,-153.8 448.62,-149.8 316.38,-149.8 316.38,-113.8 475.62,-113.8 475.62,-149.8"/>
<text text-anchor="middle" x="396" y="-127.6" font-family="Times,serif" font-size="14.00">RolesPermissionsModule</text>
</g>
<!-- RolePermissionsAssignmentComponent&#45;&gt;RolesPermissionsModule -->
<g id="edge1" class="edge">
<title>RolePermissionsAssignmentComponent&#45;&gt;RolesPermissionsModule</title>
<path fill="none" stroke="black" d="M368.31,-84.91C368.31,-84.91 368.31,-103.79 368.31,-103.79"/>
<polygon fill="black" stroke="black" points="364.81,-103.79 368.31,-113.79 371.81,-103.79 364.81,-103.79"/>
</g>
<!-- RolesListComponent -->
<g id="node2" class="node">
<title>RolesListComponent</title>
<polygon fill="#ffffb3" stroke="black" points="159.5,-84.8 24.5,-84.8 24.5,-48.8 159.5,-48.8 159.5,-84.8"/>
<text text-anchor="middle" x="92" y="-62.6" font-family="Times,serif" font-size="14.00">RolesListComponent</text>
</g>
<!-- RolesListComponent&#45;&gt;RolesPermissionsModule -->
<g id="edge2" class="edge">
<title>RolesListComponent&#45;&gt;RolesPermissionsModule</title>
<path fill="none" stroke="black" d="M92,-84.91C92,-104.14 92,-131.8 92,-131.8 92,-131.8 306.13,-131.8 306.13,-131.8"/>
<polygon fill="black" stroke="black" points="306.13,-135.3 316.13,-131.8 306.13,-128.3 306.13,-135.3"/>
</g>
<!-- RolesPermissionsRoutingModule -->
<g id="node4" class="node">
<title>RolesPermissionsRoutingModule</title>
<polygon fill="#8dd3c7" stroke="black" points="764.23,-84.8 761.23,-88.8 740.23,-88.8 737.23,-84.8 559.77,-84.8 559.77,-48.8 764.23,-48.8 764.23,-84.8"/>
<text text-anchor="middle" x="662" y="-62.6" font-family="Times,serif" font-size="14.00">RolesPermissionsRoutingModule</text>
</g>
<!-- RolesPermissionsRoutingModule&#45;&gt;RolesPermissionsModule -->
<g id="edge3" class="edge">
<title>RolesPermissionsRoutingModule&#45;&gt;RolesPermissionsModule</title>
<path fill="none" stroke="black" d="M662,-84.91C662,-104.14 662,-131.8 662,-131.8 662,-131.8 485.81,-131.8 485.81,-131.8"/>
<polygon fill="black" stroke="black" points="485.81,-128.3 475.81,-131.8 485.81,-135.3 485.81,-128.3"/>
</g>
<!-- SharedModule -->
<g id="node5" class="node">
<title>SharedModule</title>
<polygon fill="#8dd3c7" stroke="black" points="542.43,-84.8 539.43,-88.8 518.43,-88.8 515.43,-84.8 443.57,-84.8 443.57,-48.8 542.43,-48.8 542.43,-84.8"/>
<text text-anchor="middle" x="493" y="-62.6" font-family="Times,serif" font-size="14.00">SharedModule</text>
</g>
<!-- SharedModule&#45;&gt;RolesPermissionsModule -->
<g id="edge4" class="edge">
<title>SharedModule&#45;&gt;RolesPermissionsModule</title>
<path fill="none" stroke="black" d="M459.67,-84.91C459.67,-84.91 459.67,-103.79 459.67,-103.79"/>
<polygon fill="black" stroke="black" points="456.17,-103.79 459.67,-113.79 463.17,-103.79 456.17,-103.79"/>
</g>
</g>
</svg>
